<svg width="193" height="101" viewBox="0 0 193 101" fill="none" xmlns="http://www.w3.org/2000/svg">
<g filter="url(#filter0_dd_63_33)">
<path d="M42.008 58.5V56.484C42.008 56.12 42.12 55.791 42.344 55.497L49.421 46.089C49.617 45.837 49.715 45.606 49.715 45.396H42.218V43.38H52.277V45.396C52.277 45.718 52.2 45.977 52.046 46.173L44.927 55.623C44.717 55.889 44.612 56.176 44.612 56.484H52.571L52.277 58.5H42.008ZM63.9912 47.979V55.833C63.9912 56.323 64.0472 56.652 64.1592 56.82C64.2712 56.974 64.5442 57.051 64.9782 57.051L65.0622 58.374C64.7122 58.5 64.3412 58.563 63.9492 58.563C62.8572 58.563 62.2062 58.066 61.9962 57.072C61.2542 58.192 60.1552 58.752 58.6992 58.752C57.2572 58.752 56.1792 58.213 55.4652 57.135C54.7652 56.057 54.4152 54.671 54.4152 52.977C54.4152 51.269 54.8982 49.855 55.8642 48.735C56.8302 47.601 58.1252 47.034 59.7492 47.034C60.4072 47.034 61.1702 47.139 62.0382 47.349C62.9202 47.545 63.5712 47.755 63.9912 47.979ZM56.8092 53.145C56.8092 54.503 57.0122 55.483 57.4182 56.085C57.8382 56.687 58.4402 56.988 59.2242 56.988C60.0082 56.988 60.6172 56.715 61.0512 56.169C61.4992 55.609 61.7232 54.923 61.7232 54.111V49.071C61.1772 48.889 60.5542 48.798 59.8542 48.798C58.7902 48.798 58.0132 49.183 57.5232 49.953C57.0472 50.723 56.8092 51.787 56.8092 53.145ZM68.099 50.856C68.099 49.596 67.973 48.462 67.721 47.454L69.485 47.223L70.01 48.588C70.892 47.552 71.886 47.034 72.992 47.034C73.734 47.034 74.308 47.209 74.714 47.559C75.134 47.909 75.344 48.406 75.344 49.05C75.344 49.694 75.239 50.261 75.029 50.751L73.223 50.52C73.223 49.89 73.16 49.449 73.034 49.197C72.922 48.931 72.677 48.798 72.299 48.798C71.935 48.798 71.571 48.945 71.207 49.239C70.857 49.533 70.577 49.862 70.367 50.226V58.5H68.099V50.856ZM86.0576 47.979V55.833C86.0576 56.323 86.1136 56.652 86.2256 56.82C86.3376 56.974 86.6106 57.051 87.0446 57.051L87.1286 58.374C86.7786 58.5 86.4076 58.563 86.0156 58.563C84.9236 58.563 84.2726 58.066 84.0626 57.072C83.3206 58.192 82.2216 58.752 80.7656 58.752C79.3236 58.752 78.2456 58.213 77.5316 57.135C76.8316 56.057 76.4816 54.671 76.4816 52.977C76.4816 51.269 76.9646 49.855 77.9306 48.735C78.8966 47.601 80.1916 47.034 81.8156 47.034C82.4736 47.034 83.2366 47.139 84.1046 47.349C84.9866 47.545 85.6376 47.755 86.0576 47.979ZM78.8756 53.145C78.8756 54.503 79.0786 55.483 79.4846 56.085C79.9046 56.687 80.5066 56.988 81.2906 56.988C82.0746 56.988 82.6836 56.715 83.1176 56.169C83.5656 55.609 83.7896 54.923 83.7896 54.111V49.071C83.2436 48.889 82.6206 48.798 81.9206 48.798C80.8566 48.798 80.0796 49.183 79.5896 49.953C79.1136 50.723 78.8756 51.787 78.8756 53.145ZM98.8335 58.5H96.3975L93.6465 54.657L91.0215 58.5H88.5855L92.4075 52.935L88.5855 47.58L90.7905 47.181L93.8145 51.444L96.7125 47.181L98.9175 47.58L95.0535 53.187L98.8335 58.5ZM102.539 42.54C102.889 42.54 103.183 42.652 103.421 42.876C103.659 43.086 103.778 43.408 103.778 43.842C103.778 44.752 103.302 45.207 102.35 45.207C102.014 45.207 101.734 45.102 101.51 44.892C101.286 44.668 101.174 44.346 101.174 43.926C101.174 43.002 101.629 42.54 102.539 42.54ZM101.342 58.5V47.433L103.61 47.139V58.5H101.342ZM106.416 57.933L106.899 56.232C108.047 56.736 109.034 56.988 109.86 56.988C111.288 56.988 112.002 56.505 112.002 55.539C112.002 54.783 111.316 54.153 109.944 53.649C109.412 53.453 109.013 53.299 108.747 53.187C108.481 53.061 108.152 52.872 107.76 52.62C106.99 52.116 106.605 51.36 106.605 50.352C106.605 49.33 106.962 48.532 107.676 47.958C108.404 47.37 109.384 47.076 110.616 47.076C111.862 47.076 112.933 47.286 113.829 47.706C113.997 47.776 114.088 47.811 114.102 47.811L113.661 49.512C112.639 49.064 111.729 48.84 110.931 48.84C109.531 48.84 108.831 49.316 108.831 50.268C108.831 50.548 108.901 50.765 109.041 50.919C109.195 51.059 109.314 51.164 109.398 51.234C109.482 51.29 109.622 51.367 109.818 51.465C110.014 51.549 110.154 51.612 110.238 51.654C110.336 51.682 110.511 51.745 110.763 51.843C111.015 51.941 111.267 52.039 111.519 52.137C111.785 52.221 112.058 52.34 112.338 52.494C112.632 52.648 112.94 52.858 113.262 53.124C113.906 53.656 114.228 54.468 114.228 55.56C114.228 56.302 114.011 56.918 113.577 57.408C112.807 58.304 111.519 58.752 109.713 58.752C108.509 58.752 107.41 58.479 106.416 57.933ZM122.213 57.744L122.738 56.106C123.018 56.232 123.473 56.372 124.103 56.526C124.747 56.666 125.342 56.736 125.888 56.736C127.834 56.736 128.807 55.833 128.807 54.027C128.807 53.061 128.576 52.361 128.114 51.927C127.652 51.493 127.001 51.276 126.161 51.276C125.335 51.276 124.642 51.374 124.082 51.57L122.864 50.31L123.704 44.262H130.613V46.026H125.783L125.342 49.596C125.874 49.54 126.294 49.512 126.602 49.512C128.002 49.512 129.115 49.911 129.941 50.709C130.781 51.507 131.201 52.634 131.201 54.09C131.201 55.532 130.739 56.631 129.815 57.387C128.891 58.129 127.638 58.5 126.056 58.5C125.37 58.5 124.635 58.416 123.851 58.248C123.081 58.08 122.535 57.912 122.213 57.744ZM134.195 58.5L134.888 43.527C135.84 43.345 136.764 43.254 137.66 43.254C137.94 43.254 138.143 43.408 138.269 43.716L142.28 54.678L146.291 43.716C146.417 43.408 146.62 43.254 146.9 43.254C147.908 43.254 148.832 43.345 149.672 43.527L150.365 58.5H148.076L147.719 45.627L143.876 56.4C142.7 56.596 141.888 56.694 141.44 56.694C140.992 56.694 140.712 56.54 140.6 56.232L136.841 45.627L136.484 58.5H134.195Z" fill="white"/>
</g>
<defs>
<filter id="filter0_dd_63_33" x="0.310402" y="0.8424" width="191.752" height="99.6072" filterUnits="userSpaceOnUse" color-interpolation-filters="sRGB">
<feFlood flood-opacity="0" result="BackgroundImageFix"/>
<feColorMatrix in="SourceAlpha" type="matrix" values="0 0 0 0 0 0 0 0 0 0 0 0 0 0 0 0 0 0 127 0" result="hardAlpha"/>
<feOffset/>
<feGaussianBlur stdDeviation="5.9568"/>
<feColorMatrix type="matrix" values="0 0 0 0 1 0 0 0 0 1 0 0 0 0 1 0 0 0 1 0"/>
<feBlend mode="normal" in2="BackgroundImageFix" result="effect1_dropShadow_63_33"/>
<feColorMatrix in="SourceAlpha" type="matrix" values="0 0 0 0 0 0 0 0 0 0 0 0 0 0 0 0 0 0 127 0" result="hardAlpha"/>
<feOffset/>
<feGaussianBlur stdDeviation="20.8488"/>
<feColorMatrix type="matrix" values="0 0 0 0 1 0 0 0 0 1 0 0 0 0 1 0 0 0 1 0"/>
<feBlend mode="normal" in2="effect1_dropShadow_63_33" result="effect2_dropShadow_63_33"/>
<feBlend mode="normal" in="SourceGraphic" in2="effect2_dropShadow_63_33" result="shape"/>
</filter>
</defs>
</svg>
