<svg width="136" height="42" viewBox="0 0 136 42" fill="none" xmlns="http://www.w3.org/2000/svg">
<g filter="url(#filter0_d_68_2)">
<path d="M14.0142 18.7705C14.2583 16.443 14.5513 14.6038 14.8931 13.2529C14.9582 13.0902 15.1006 12.9071 15.3203 12.7036C15.5482 12.492 15.7354 12.3862 15.8818 12.3862H20.4961C18.4697 13.8918 16.6631 15.7472 15.0762 17.9526C14.9867 18.091 14.828 18.2619 14.6001 18.4653C14.3804 18.6688 14.1851 18.7705 14.0142 18.7705ZM27.21 22.5669C26.9658 24.8293 26.6769 26.6807 26.3433 28.1211C26.27 28.2839 26.1195 28.471 25.8916 28.6826C25.6719 28.8942 25.4888 29 25.3423 29H20.728C22.7056 27.5352 24.5122 25.6553 26.1479 23.3604C26.2619 23.2057 26.4246 23.0348 26.6362 22.8477C26.856 22.6605 27.0472 22.5669 27.21 22.5669ZM12.6958 28.1943C16.3579 22.8232 19.3405 17.5539 21.6436 12.3862H27.6128C27.8 12.3862 28.0197 12.492 28.272 12.7036C28.5243 12.9071 28.6626 13.0658 28.687 13.1797C28.4998 13.4889 28.1174 14.1156 27.5396 15.0596C26.9618 16.0036 26.5955 16.6058 26.4409 16.8662C26.2863 17.1185 25.973 17.6353 25.501 18.4165C25.0371 19.1896 24.7238 19.7104 24.561 19.979C24.4064 20.2476 24.1379 20.7114 23.7554 21.3706C23.3729 22.0298 23.0921 22.5221 22.9131 22.8477L22.144 24.2271C21.8185 24.813 21.5418 25.3298 21.314 25.7773C21.0861 26.2168 20.8257 26.7173 20.5327 27.2788C20.2479 27.8403 19.9631 28.4141 19.6782 29H13.77C13.5747 29 13.3468 28.8942 13.0864 28.6826C12.826 28.4629 12.6958 28.3001 12.6958 28.1943ZM42.8716 29H37.1953C36.5605 23.9382 35.759 19.5436 34.7905 15.8164C35.2625 14.8561 35.6654 13.9772 35.999 13.1797C36.056 13.0576 36.2025 12.8949 36.4385 12.6914C36.6826 12.488 36.8901 12.3862 37.061 12.3862H40.9429C41.2765 14.8439 41.7241 17.5824 42.2856 20.6016C42.8553 23.6126 43.4087 26.1436 43.9458 28.1943C43.9458 28.3001 43.8156 28.4629 43.5552 28.6826C43.2948 28.8942 43.0669 29 42.8716 29ZM33.1182 26.8394L33.1548 28.1943C33.1548 28.3001 33.0205 28.4629 32.752 28.6826C32.4915 28.8942 32.2677 29 32.0806 29H28.1865C29.4723 26.819 31.4661 22.8232 34.168 17.0127C34.2412 17.2243 34.2778 17.5213 34.2778 17.9038C34.2778 18.2782 34.2209 18.8234 34.1069 19.5396C34.0011 20.2557 33.8628 21.1021 33.6919 22.0786C33.521 23.047 33.3949 23.8324 33.3135 24.4346C34.4854 24.6136 35.3358 24.813 35.8647 25.0327C35.8647 25.521 35.7834 25.8831 35.6206 26.1191C34.7743 26.1924 33.9401 26.3022 33.1182 26.4487V26.8394ZM53.2231 28.1943C53.2231 28.3001 53.0929 28.4629 52.8325 28.6826C52.5721 28.8942 52.3442 29 52.1489 29H46.6069C47.7218 24.5078 48.5153 19.2791 48.9873 13.314C48.9873 13.2163 49.1175 13.0658 49.3779 12.8623C49.6383 12.6507 49.8621 12.5409 50.0493 12.5327C52.4907 12.3293 54.3543 12.2275 55.6401 12.2275C54.4683 17.2894 53.6626 22.6117 53.2231 28.1943ZM62.0854 23.5068L61.9146 25.9604C61.9146 26.408 61.9959 26.7661 62.1587 27.0347C62.3215 27.3032 62.6226 27.4701 63.062 27.5352C62.9806 28.0479 62.8464 28.467 62.6592 28.7925C61.2025 29.1343 59.9614 29.3052 58.936 29.3052C57.9188 29.3052 57.1294 29.1668 56.5679 28.8901C56.0145 28.6053 55.7378 28.1659 55.7378 27.5718C55.7378 26.9777 55.8273 26.168 56.0063 25.1426C56.1935 24.109 56.2871 23.3766 56.2871 22.9453C56.2871 22.5059 56.1895 22.1396 55.9941 21.8467C55.7988 21.5537 55.5343 21.391 55.2007 21.3584C55.2414 20.9922 55.3797 20.6667 55.6157 20.3818C56.2993 20.0238 56.8324 19.4663 57.2148 18.7095C57.5973 17.9526 57.7886 17.1348 57.7886 16.2559C57.7886 14.9375 57.3939 13.8674 56.6045 13.0454C56.6045 12.9233 56.7347 12.7524 56.9951 12.5327C57.2555 12.313 57.4793 12.2031 57.6665 12.2031C59.1232 12.2031 60.3846 12.5042 61.4507 13.1064C61.9878 13.4157 62.415 13.8389 62.7324 14.376C63.0498 14.9131 63.2085 15.5316 63.2085 16.2314C63.2085 17.3789 62.6836 18.3555 61.6338 19.1611C60.584 19.9668 59.1802 20.4307 57.4224 20.5527L58.521 20.6504C59.5952 20.7562 60.4578 21.041 61.1089 21.5049C61.7599 21.9606 62.0854 22.6279 62.0854 23.5068ZM78.2964 29H72.6201C71.9854 23.9382 71.1838 19.5436 70.2153 15.8164C70.6873 14.8561 71.0902 13.9772 71.4238 13.1797C71.4808 13.0576 71.6273 12.8949 71.8633 12.6914C72.1074 12.488 72.3149 12.3862 72.4858 12.3862H76.3677C76.7013 14.8439 77.1489 17.5824 77.7104 20.6016C78.2801 23.6126 78.8335 26.1436 79.3706 28.1943C79.3706 28.3001 79.2404 28.4629 78.98 28.6826C78.7196 28.8942 78.4917 29 78.2964 29ZM68.543 26.8394L68.5796 28.1943C68.5796 28.3001 68.4453 28.4629 68.1768 28.6826C67.9163 28.8942 67.6925 29 67.5054 29H63.6113C64.8971 26.819 66.891 22.8232 69.5928 17.0127C69.666 17.2243 69.7026 17.5213 69.7026 17.9038C69.7026 18.2782 69.6457 18.8234 69.5317 19.5396C69.4259 20.2557 69.2876 21.1021 69.1167 22.0786C68.9458 23.047 68.8197 23.8324 68.7383 24.4346C69.9102 24.6136 70.7606 24.813 71.2896 25.0327C71.2896 25.521 71.2082 25.8831 71.0454 26.1191C70.1991 26.1924 69.3649 26.3022 68.543 26.4487V26.8394ZM88.77 29C87.1343 23.3848 85.1649 18.1113 82.8618 13.1797C82.8618 13.0739 82.992 12.9152 83.2524 12.7036C83.521 12.492 83.7489 12.3862 83.936 12.3862H90.186C91.1138 15.5601 92.0049 18.3026 92.8594 20.6138C93.7139 22.9168 94.7881 25.4437 96.082 28.1943C96.082 28.3001 95.9518 28.4629 95.6914 28.6826C95.431 28.8942 95.2072 29 95.02 29H88.77ZM93.5186 20.1987C93.9824 18.6606 94.2144 17.326 94.2144 16.1948C94.2144 15.6577 94.1655 15.1857 94.0679 14.7788C93.9702 14.3638 93.7993 13.8307 93.5552 13.1797C93.5552 13.0739 93.6854 12.9152 93.9458 12.7036C94.2144 12.492 94.4422 12.3862 94.6294 12.3862H98.5234C97.555 13.8674 96.7616 15.1369 96.1431 16.1948C95.5246 17.2528 95.0037 18.3107 94.5806 19.3687C94.5317 19.4989 94.3893 19.6698 94.1533 19.8813C93.9173 20.0929 93.7057 20.1987 93.5186 20.1987ZM85.4619 21.1387C84.998 22.6279 84.7661 23.8853 84.7661 24.9106C84.7661 25.936 84.9858 27.0306 85.4253 28.1943C85.4253 28.3001 85.291 28.4629 85.0225 28.6826C84.762 28.8942 84.5382 29 84.3511 29H80.4448C82.3573 26.0622 83.6715 23.7103 84.3877 21.9443C84.4365 21.8141 84.5789 21.6473 84.8149 21.4438C85.0591 21.2404 85.2747 21.1387 85.4619 21.1387ZM104.029 29H98.3525C99.4756 24.1416 100.269 18.8682 100.733 13.1797C100.733 13.0739 100.863 12.9152 101.124 12.7036C101.392 12.492 101.62 12.3862 101.807 12.3862H107.483C106.352 17.2039 105.555 22.4733 105.091 28.1943C105.091 28.3001 104.961 28.4629 104.7 28.6826C104.44 28.8942 104.216 29 104.029 29ZM117.396 11.9224C116.753 12.4676 116.431 13.1309 116.431 13.9121C116.431 14.6852 116.643 15.4624 117.066 16.2437C117.497 17.0168 117.998 17.6759 118.567 18.2212C119.137 18.7664 119.576 19.2018 119.886 19.5273C120.203 19.8447 120.557 20.2313 120.948 20.687C121.347 21.1346 121.66 21.5374 121.888 21.8955C122.449 22.7663 122.73 23.5313 122.73 24.1904C122.73 24.8415 122.592 25.4478 122.315 26.0093C122.046 26.5708 121.66 27.0835 121.155 27.5474C120.659 28.0031 120.02 28.3815 119.239 28.6826C118.466 28.9837 117.611 29.1546 116.675 29.1953C116.936 28.821 117.066 28.4303 117.066 28.0234C117.066 27.6084 116.98 27.1893 116.81 26.7661C116.639 26.3348 116.378 25.875 116.028 25.3867C115.467 24.5973 114.836 23.8242 114.136 23.0674C113.444 22.3105 112.96 21.7694 112.684 21.4438C112.415 21.1183 112.11 20.7074 111.768 20.2109C111.101 19.2507 110.767 18.2863 110.767 17.3179C110.767 16.3494 111.064 15.4502 111.658 14.6201C112.252 13.79 113.054 13.1349 114.063 12.6548C115.08 12.1746 116.191 11.9305 117.396 11.9224ZM121.46 19.2954C121.46 18.506 121.318 17.6922 121.033 16.854C120.472 15.2183 119.536 13.8999 118.226 12.8989C118.242 12.7524 118.38 12.5775 118.641 12.374C118.901 12.1706 119.117 12.0688 119.288 12.0688C119.882 12.0688 120.573 12.1868 121.363 12.4229C122.16 12.6589 122.791 12.8867 123.255 13.1064C123.296 13.3506 123.316 13.7778 123.316 14.3882C123.316 14.9904 123.259 15.7472 123.145 16.6587C123.031 17.562 122.893 18.2782 122.73 18.8071C122.681 18.9292 122.506 19.0431 122.205 19.1489C121.912 19.2466 121.664 19.2954 121.46 19.2954ZM115.613 28.1333C115.516 28.6867 115.365 29.057 115.162 29.2441C114.307 29.2441 113.298 29.1343 112.134 28.9146C110.971 28.6948 110.124 28.4141 109.595 28.0723C109.587 27.8932 109.583 27.6369 109.583 27.3032C109.583 25.7163 109.77 24.2108 110.145 22.7866C110.177 22.6564 110.315 22.4937 110.56 22.2983C110.804 22.0949 111.023 21.9932 111.219 21.9932C111.406 22.8883 111.74 23.7876 112.22 24.6909C112.708 25.5942 113.257 26.3592 113.868 26.9858C114.486 27.6043 115.068 27.9868 115.613 28.1333Z" fill="white"/>
</g>
<defs>
<filter id="filter0_d_68_2" x="0.782201" y="0.00876331" width="134.447" height="41.21" filterUnits="userSpaceOnUse" color-interpolation-filters="sRGB">
<feFlood flood-opacity="0" result="BackgroundImageFix"/>
<feColorMatrix in="SourceAlpha" type="matrix" values="0 0 0 0 0 0 0 0 0 0 0 0 0 0 0 0 0 0 127 0" result="hardAlpha"/>
<feOffset/>
<feGaussianBlur stdDeviation="5.9568"/>
<feColorMatrix type="matrix" values="0 0 0 0 1 0 0 0 0 1 0 0 0 0 1 0 0 0 1 0"/>
<feBlend mode="normal" in2="BackgroundImageFix" result="effect1_dropShadow_68_2"/>
<feBlend mode="normal" in="SourceGraphic" in2="effect1_dropShadow_68_2" result="shape"/>
</filter>
</defs>
</svg>
