<svg width="20" height="25" viewBox="0 0 20 25" fill="none" xmlns="http://www.w3.org/2000/svg">
<path d="M15.3846 2.3435C15.3846 1.72197 15.1415 1.12589 14.7087 0.686396C14.2759 0.246904 13.689 0 13.0769 0C12.4649 0 11.8779 0.246904 11.4451 0.686396C11.0124 1.12589 10.7692 1.72197 10.7692 2.3435C10.7692 2.96504 11.0124 3.56112 11.4451 4.00061C11.8779 4.4401 12.4649 4.687 13.0769 4.687C13.689 4.687 14.2759 4.4401 14.7087 4.00061C15.1415 3.56112 15.3846 2.96504 15.3846 2.3435ZM6.04327 8.56843C6.51923 8.08508 7.16827 7.81167 7.84615 7.81167C7.9375 7.81167 8.02885 7.81656 8.11538 7.82632L6.61539 12.401C6.16827 13.7681 6.69712 15.2718 7.90385 16.0383L12.0481 18.6699L10.8269 23.0054C10.5913 23.8354 11.0673 24.6995 11.8846 24.9388C12.7019 25.178 13.5529 24.6947 13.7885 23.8647L15.1683 18.9628C15.4519 17.9571 15.0433 16.883 14.1731 16.3313L11.4423 14.5981L12.9279 10.5751L13.1731 11.1756C13.8942 12.9234 15.5721 14.061 17.4375 14.061H18.4615C19.3125 14.061 20 13.3628 20 12.4987C20 11.6345 19.3125 10.9363 18.4615 10.9363H17.4375C16.8173 10.9363 16.2548 10.5555 16.0192 9.97453L15.7163 9.24219C15.0144 7.5285 13.5962 6.22005 11.8462 5.67323L9.50481 4.94088C8.97115 4.77489 8.41346 4.687 7.85096 4.687C6.36058 4.687 4.92788 5.28753 3.875 6.36163L2.75962 7.48944C2.15865 8.09973 2.15865 9.09084 2.75962 9.70112C3.36058 10.3114 4.33654 10.3114 4.9375 9.70112L6.04808 8.57331L6.04327 8.56843ZM4.38462 17.1857H1.53846C0.6875 17.1857 0 17.8839 0 18.748C0 19.6122 0.6875 20.3104 1.53846 20.3104H4.88462C5.79808 20.3104 6.625 19.7635 6.99519 18.9189L7.54808 17.6544L7.09135 17.3614C6.25 16.8293 5.625 16.053 5.26923 15.1693L4.38462 17.1857Z" fill="white"/>
</svg>
