<svg width="20" height="16" viewBox="0 0 20 16" fill="none" xmlns="http://www.w3.org/2000/svg">
<path d="M5.28125 3.05L4.26172 5.71429H15.7383L14.7187 3.05C14.543 2.59286 14.0703 2.28571 13.5391 2.28571H6.46094C5.92969 2.28571 5.45703 2.59286 5.28125 3.05ZM1.54687 5.88571L2.92188 2.29643C3.44922 0.921429 4.86719 0 6.46094 0H13.5391C15.1328 0 16.5508 0.921429 17.0781 2.29643L18.4531 5.88571C19.3594 6.22857 20 7.04643 20 8V13.1429V14.8571C20 15.4893 19.4414 16 18.75 16H17.5C16.8086 16 16.25 15.4893 16.25 14.8571V13.1429H3.75V14.8571C3.75 15.4893 3.19141 16 2.5 16H1.25C0.558594 16 0 15.4893 0 14.8571V13.1429V8C0 7.04643 0.640625 6.22857 1.54687 5.88571ZM5 9.14286C5 8.83975 4.8683 8.54906 4.63388 8.33474C4.39946 8.12041 4.08152 8 3.75 8C3.41848 8 3.10054 8.12041 2.86612 8.33474C2.6317 8.54906 2.5 8.83975 2.5 9.14286C2.5 9.44596 2.6317 9.73665 2.86612 9.95098C3.10054 10.1653 3.41848 10.2857 3.75 10.2857C4.08152 10.2857 4.39946 10.1653 4.63388 9.95098C4.8683 9.73665 5 9.44596 5 9.14286ZM16.25 10.2857C16.5815 10.2857 16.8995 10.1653 17.1339 9.95098C17.3683 9.73665 17.5 9.44596 17.5 9.14286C17.5 8.83975 17.3683 8.54906 17.1339 8.33474C16.8995 8.12041 16.5815 8 16.25 8C15.9185 8 15.6005 8.12041 15.3661 8.33474C15.1317 8.54906 15 8.83975 15 9.14286C15 9.44596 15.1317 9.73665 15.3661 9.95098C15.6005 10.1653 15.9185 10.2857 16.25 10.2857Z" fill="white"/>
</svg>
