<svg width="21" height="18" viewBox="0 0 21 18" fill="none" xmlns="http://www.w3.org/2000/svg">
<path d="M19.25 0.9375C19.25 0.417969 18.8599 0 18.375 0C17.8901 0 17.5 0.417969 17.5 0.9375V1.25H1.16667C0.521354 1.25 0 1.80859 0 2.5V6.875C0 7.56641 0.521354 8.125 1.16667 8.125H1.53125C2.28958 8.125 2.8474 8.89062 2.66146 9.67969L1.20312 15.9453C1.11562 16.3203 1.19583 16.7148 1.41458 17.0195C1.63333 17.3242 1.9724 17.5 2.33333 17.5H5.83333C6.36927 17.5 6.83594 17.1094 6.96354 16.5547L7.91146 12.5H11.7177C12.5818 12.5 13.351 11.918 13.6391 11.0469L14.6161 8.125H15.75C16.0599 8.125 16.3552 7.99219 16.574 7.75781L17.4016 6.875H19.8333C20.4786 6.875 21 6.31641 21 5.625V2.5C21 1.80859 20.4786 1.25 19.8333 1.25H19.25V0.9375ZM11.7177 10.625H8.34896L8.93229 8.125H12.7604L11.9948 10.418C11.9547 10.543 11.8417 10.625 11.7214 10.625H11.7177ZM2.91667 3.75H16.9167C17.2375 3.75 17.5 4.03125 17.5 4.375C17.5 4.71875 17.2375 5 16.9167 5H2.91667C2.59583 5 2.33333 4.71875 2.33333 4.375C2.33333 4.03125 2.59583 3.75 2.91667 3.75Z" fill="white"/>
</svg>
