<svg width="21" height="21" viewBox="0 0 21 21" fill="none" xmlns="http://www.w3.org/2000/svg">
<path d="M10.5 0C11.226 0 11.8125 0.586523 11.8125 1.3125V1.73906C15.6557 2.30918 18.6908 5.34844 19.2609 9.1875H19.6875C20.4135 9.1875 21 9.77402 21 10.5C21 11.226 20.4135 11.8125 19.6875 11.8125H19.2609C18.6908 15.6557 15.6516 18.6908 11.8125 19.2609V19.6875C11.8125 20.4135 11.226 21 10.5 21C9.77402 21 9.1875 20.4135 9.1875 19.6875V19.2609C5.34434 18.6908 2.30918 15.6557 1.73906 11.8125H1.3125C0.586523 11.8125 0 11.226 0 10.5C0 9.77402 0.586523 9.1875 1.3125 9.1875H1.73906C2.30918 5.34434 5.34434 2.30918 9.1875 1.73906V1.3125C9.1875 0.586523 9.77402 0 10.5 0ZM4.40508 11.8125C4.91777 14.2037 6.80039 16.0822 9.1875 16.5949V15.75C9.1875 15.024 9.77402 14.4375 10.5 14.4375C11.226 14.4375 11.8125 15.024 11.8125 15.75V16.5949C14.2037 16.0822 16.0822 14.1996 16.5949 11.8125H15.75C15.024 11.8125 14.4375 11.226 14.4375 10.5C14.4375 9.77402 15.024 9.1875 15.75 9.1875H16.5949C16.0822 6.79629 14.2037 4.91777 11.8125 4.40508V5.25C11.8125 5.97598 11.226 6.5625 10.5 6.5625C9.77402 6.5625 9.1875 5.97598 9.1875 5.25V4.40508C6.79629 4.91777 4.91777 6.79629 4.40508 9.1875H5.25C5.97598 9.1875 6.5625 9.77402 6.5625 10.5C6.5625 11.226 5.97598 11.8125 5.25 11.8125H4.40508ZM10.5 9.1875C10.8481 9.1875 11.1819 9.32578 11.4281 9.57192C11.6742 9.81806 11.8125 10.1519 11.8125 10.5C11.8125 10.8481 11.6742 11.1819 11.4281 11.4281C11.1819 11.6742 10.8481 11.8125 10.5 11.8125C10.1519 11.8125 9.81806 11.6742 9.57192 11.4281C9.32578 11.1819 9.1875 10.8481 9.1875 10.5C9.1875 10.1519 9.32578 9.81806 9.57192 9.57192C9.81806 9.32578 10.1519 9.1875 10.5 9.1875Z" fill="white"/>
</svg>
