<svg width="22" height="16" viewBox="0 0 22 16" fill="none" xmlns="http://www.w3.org/2000/svg">
<path d="M10.9981 0C7.91225 0 5.44128 1.31429 3.64248 2.87857C1.85513 4.42857 0.659752 6.28571 0.094523 7.56071C-0.0315077 7.84286 -0.0315077 8.15714 0.094523 8.43929C0.659752 9.71429 1.85513 11.5714 3.64248 13.1214C5.44128 14.6857 7.91225 16 10.9981 16C14.0839 16 16.5549 14.6857 18.3537 13.1214C20.141 11.5679 21.3364 9.71429 21.9055 8.43929C22.0315 8.15714 22.0315 7.84286 21.9055 7.56071C21.3364 6.28571 20.141 4.42857 18.3537 2.87857C16.5549 1.31429 14.0839 0 10.9981 0ZM5.49857 8C5.49857 6.63603 6.07798 5.32792 7.10934 4.36345C8.1407 3.39898 9.53953 2.85714 10.9981 2.85714C12.4567 2.85714 13.8555 3.39898 14.8868 4.36345C15.9182 5.32792 16.4976 6.63603 16.4976 8C16.4976 9.36397 15.9182 10.6721 14.8868 11.6365C13.8555 12.601 12.4567 13.1429 10.9981 13.1429C9.53953 13.1429 8.1407 12.601 7.10934 11.6365C6.07798 10.6721 5.49857 9.36397 5.49857 8ZM10.9981 5.71429C10.9981 6.975 9.90201 8 8.55386 8C8.2827 8 8.023 7.95714 7.77858 7.88214C7.56853 7.81786 7.3241 7.93929 7.33174 8.14643C7.3432 8.39286 7.38139 8.63929 7.45395 8.88571C7.97717 10.7143 9.98984 11.8 11.9452 11.3107C13.9006 10.8214 15.0616 8.93929 14.5384 7.11071C14.1145 5.62857 12.7129 4.63214 11.1547 4.57143C10.9332 4.56429 10.8033 4.78929 10.8721 4.98929C10.9523 5.21786 10.9981 5.46071 10.9981 5.71429Z" fill="white"/>
</svg>
