<svg width="22" height="19" viewBox="0 0 22 19" fill="none" xmlns="http://www.w3.org/2000/svg">
<path d="M2.75 0C1.2332 0 0 1.17715 0 2.625V5.25C0 6.69785 1.2332 7.875 2.75 7.875H19.25C20.7668 7.875 22 6.69785 22 5.25V2.625C22 1.17715 20.7668 0 19.25 0H2.75ZM14.7812 2.95312C15.0548 2.95312 15.3171 3.05684 15.5105 3.24144C15.7039 3.42605 15.8125 3.67643 15.8125 3.9375C15.8125 4.19857 15.7039 4.44895 15.5105 4.63356C15.3171 4.81816 15.0548 4.92187 14.7812 4.92188C14.5077 4.92187 14.2454 4.81816 14.052 4.63356C13.8586 4.44895 13.75 4.19857 13.75 3.9375C13.75 3.67643 13.8586 3.42605 14.052 3.24144C14.2454 3.05684 14.5077 2.95313 14.7812 2.95312ZM16.8438 3.9375C16.8438 3.67643 16.9524 3.42605 17.1458 3.24144C17.3392 3.05684 17.6015 2.95313 17.875 2.95312C18.1485 2.95312 18.4108 3.05684 18.6042 3.24144C18.7976 3.42605 18.9062 3.67643 18.9062 3.9375C18.9062 4.19857 18.7976 4.44895 18.6042 4.63356C18.4108 4.81816 18.1485 4.92187 17.875 4.92188C17.6015 4.92187 17.3392 4.81816 17.1458 4.63356C16.9524 4.44895 16.8438 4.19857 16.8438 3.9375ZM2.75 10.5C1.2332 10.5 0 11.6771 0 13.125V15.75C0 17.1979 1.2332 18.375 2.75 18.375H19.25C20.7668 18.375 22 17.1979 22 15.75V13.125C22 11.6771 20.7668 10.5 19.25 10.5H2.75ZM14.7812 13.4531C15.0548 13.4531 15.3171 13.5568 15.5105 13.7414C15.7039 13.926 15.8125 14.1764 15.8125 14.4375C15.8125 14.6986 15.7039 14.949 15.5105 15.1336C15.3171 15.3182 15.0548 15.4219 14.7812 15.4219C14.5077 15.4219 14.2454 15.3182 14.052 15.1336C13.8586 14.949 13.75 14.6986 13.75 14.4375C13.75 14.1764 13.8586 13.926 14.052 13.7414C14.2454 13.5568 14.5077 13.4531 14.7812 13.4531ZM17.1875 14.4375C17.1875 14.1764 17.2961 13.926 17.4895 13.7414C17.6829 13.5568 17.9452 13.4531 18.2188 13.4531C18.4923 13.4531 18.7546 13.5568 18.948 13.7414C19.1414 13.926 19.25 14.1764 19.25 14.4375C19.25 14.6986 19.1414 14.949 18.948 15.1336C18.7546 15.3182 18.4923 15.4219 18.2188 15.4219C17.9452 15.4219 17.6829 15.3182 17.4895 15.1336C17.2961 14.949 17.1875 14.6986 17.1875 14.4375Z" fill="white"/>
</svg>
