<svg width="21" height="21" viewBox="0 0 21 21" fill="none" xmlns="http://www.w3.org/2000/svg">
<path d="M20.5459 14.1668C20.6786 13.81 20.5667 13.4121 20.2807 13.1578L18.4862 11.5418C18.5317 11.2014 18.5566 10.8527 18.5566 10.5C18.5566 10.1473 18.5317 9.79863 18.4862 9.4582L20.2807 7.84219C20.5667 7.58789 20.6786 7.19004 20.5459 6.8332C20.3636 6.34512 20.1439 5.87754 19.8911 5.42637L19.6963 5.09414C19.4228 4.64297 19.1161 4.2164 18.7804 3.81445C18.5359 3.51914 18.1297 3.4207 17.765 3.53555L15.4566 4.26152C14.9012 3.83906 14.2878 3.48633 13.633 3.21972L13.115 0.877732C13.0321 0.50449 12.742 0.209178 12.3607 0.147655C11.7888 0.0533187 11.2002 0.00409991 10.5993 0.00409991C9.99836 0.00409991 9.40986 0.0533187 8.83792 0.147655C8.45664 0.209178 8.16653 0.50449 8.08364 0.877732L7.56558 3.21972C6.91076 3.48633 6.29739 3.83906 5.74204 4.26152L3.43773 3.53144C3.07302 3.4166 2.66687 3.51914 2.42235 3.81035C2.08665 4.2123 1.77996 4.63887 1.50643 5.09004L1.31164 5.42226C1.05883 5.87344 0.839177 6.34101 0.656822 6.8291C0.5242 7.18594 0.6361 7.58379 0.922065 7.83808L2.7166 9.4541C2.67101 9.79863 2.64615 10.1473 2.64615 10.5C2.64615 10.8527 2.67101 11.2014 2.7166 11.5418L0.922065 13.1578C0.6361 13.4121 0.5242 13.81 0.656822 14.1668C0.839177 14.6549 1.05883 15.1225 1.31164 15.5736L1.50643 15.9059C1.77996 16.357 2.08665 16.7836 2.42235 17.1855C2.66687 17.4809 3.07302 17.5793 3.43773 17.4645L5.74618 16.7385C6.30153 17.1609 6.91491 17.5137 7.56973 17.7803L8.08778 20.1223C8.17067 20.4955 8.46078 20.7908 8.84207 20.8523C9.414 20.9508 10.0025 21 10.6035 21C11.2044 21 11.7929 20.9508 12.3648 20.8564C12.7461 20.7949 13.0362 20.4996 13.1191 20.1264L13.6372 17.7844C14.292 17.5178 14.9054 17.165 15.4607 16.7426L17.7692 17.4686C18.1339 17.5834 18.54 17.4809 18.7846 17.1896C19.1203 16.7877 19.4269 16.3611 19.7005 15.91L19.8953 15.5777C20.1481 15.1266 20.3677 14.659 20.5501 14.1709L20.5459 14.1668ZM10.6035 7.21875C11.4828 7.21875 12.3261 7.56445 12.9479 8.1798C13.5697 8.79516 13.919 9.62976 13.919 10.5C13.919 11.3702 13.5697 12.2048 12.9479 12.8202C12.3261 13.4355 11.4828 13.7812 10.6035 13.7812C9.72411 13.7812 8.88079 13.4355 8.25901 12.8202C7.63722 12.2048 7.28791 11.3702 7.28791 10.5C7.28791 9.62976 7.63722 8.79516 8.25901 8.1798C8.88079 7.56445 9.72411 7.21875 10.6035 7.21875Z" fill="white"/>
</svg>
