<svg width="337" height="89" viewBox="0 0 337 89" fill="none" xmlns="http://www.w3.org/2000/svg">
<rect x="0.5" y="1.5" width="336" height="87" rx="7.5" fill="#131513" stroke="#1E201E"/>
<path d="M50.27 69.155C49.6087 69.155 48.9938 69.062 48.4255 68.876C47.8675 68.6797 47.3818 68.4058 46.9685 68.0545C46.5552 67.7032 46.24 67.295 46.023 66.83C45.9403 66.6647 45.9352 66.5148 46.0075 66.3805C46.0902 66.2358 46.2245 66.1377 46.4105 66.086C46.5552 66.0447 46.6947 66.0602 46.829 66.1325C46.9737 66.2048 47.0822 66.3133 47.1545 66.458C47.3095 66.7577 47.5368 67.0263 47.8365 67.264C48.1362 67.5017 48.4927 67.6877 48.906 67.822C49.3193 67.946 49.774 68.008 50.27 68.008C50.8177 68.008 51.3033 67.9202 51.727 67.7445C52.1507 67.5585 52.4813 67.295 52.719 66.954C52.967 66.6027 53.091 66.179 53.091 65.683C53.091 65.0527 52.8585 64.5102 52.3935 64.0555C51.9285 63.6008 51.2 63.3115 50.208 63.1875C48.999 63.0428 48.0535 62.6708 47.3715 62.0715C46.6895 61.4618 46.3485 60.7178 46.3485 59.8395C46.3485 59.2092 46.5138 58.6615 46.8445 58.1965C47.1855 57.7315 47.6505 57.375 48.2395 57.127C48.8285 56.8687 49.5053 56.7395 50.27 56.7395C50.8383 56.7395 51.355 56.8325 51.82 57.0185C52.285 57.1942 52.688 57.4318 53.029 57.7315C53.3803 58.0208 53.6645 58.3412 53.8815 58.6925C53.9848 58.8578 54.0158 59.018 53.9745 59.173C53.9435 59.328 53.8557 59.4468 53.711 59.5295C53.556 59.6018 53.3958 59.6122 53.2305 59.5605C53.0755 59.5088 52.9567 59.4107 52.874 59.266C52.719 59.0283 52.5227 58.8062 52.285 58.5995C52.0577 58.3825 51.7787 58.212 51.448 58.088C51.1173 57.964 50.7195 57.8968 50.2545 57.8865C49.4382 57.8865 48.782 58.0622 48.286 58.4135C47.79 58.7545 47.542 59.2557 47.542 59.917C47.542 60.2683 47.635 60.5938 47.821 60.8935C48.007 61.1828 48.3118 61.436 48.7355 61.653C49.1695 61.8597 49.7482 62.0147 50.4715 62.118C51.7632 62.304 52.719 62.7018 53.339 63.3115C53.9693 63.9108 54.2845 64.6962 54.2845 65.6675C54.2845 66.2255 54.1812 66.7215 53.9745 67.1555C53.7782 67.5895 53.494 67.9563 53.122 68.256C52.7603 68.5453 52.3315 68.7675 51.8355 68.9225C51.3498 69.0775 50.828 69.155 50.27 69.155ZM60.5017 69.0775C59.6647 69.0775 58.9207 68.8967 58.2697 68.535C57.629 68.163 57.1227 67.6515 56.7507 67.0005C56.389 66.3495 56.2082 65.6055 56.2082 64.7685C56.2082 63.9212 56.3787 63.1772 56.7197 62.5365C57.071 61.8855 57.5515 61.374 58.1612 61.002C58.7709 60.63 59.4735 60.444 60.2692 60.444C61.0545 60.444 61.7365 60.6248 62.3152 60.9865C62.9042 61.3378 63.3589 61.8287 63.6792 62.459C63.9995 63.0893 64.1597 63.8075 64.1597 64.6135C64.1597 64.7788 64.108 64.9132 64.0047 65.0165C63.9014 65.1095 63.767 65.156 63.6017 65.156H57.0142V64.164H63.7257L63.0592 64.6445C63.0695 64.0452 62.961 63.5078 62.7337 63.0325C62.5064 62.5572 62.1809 62.1852 61.7572 61.9165C61.3439 61.6478 60.8479 61.5135 60.2692 61.5135C59.6802 61.5135 59.1635 61.653 58.7192 61.932C58.2749 62.211 57.9287 62.5985 57.6807 63.0945C57.443 63.5802 57.3242 64.1382 57.3242 64.7685C57.3242 65.3988 57.4585 65.9568 57.7272 66.4425C58.0062 66.9282 58.3834 67.3105 58.8587 67.5895C59.334 67.8685 59.8817 68.008 60.5017 68.008C60.8737 68.008 61.2457 67.946 61.6177 67.822C62 67.6877 62.3049 67.5223 62.5322 67.326C62.6459 67.233 62.775 67.1865 62.9197 67.1865C63.0644 67.1762 63.1884 67.2123 63.2917 67.295C63.426 67.419 63.4932 67.5533 63.4932 67.698C63.5035 67.8427 63.4467 67.9667 63.3227 68.07C62.9817 68.3593 62.5477 68.6022 62.0207 68.7985C61.4937 68.9845 60.9874 69.0775 60.5017 69.0775ZM69.4957 69C68.948 69 68.4572 68.8708 68.0232 68.6125C67.5995 68.3542 67.2637 68.0028 67.0157 67.5585C66.7677 67.1038 66.6437 66.5872 66.6437 66.0085V58.429C66.6437 58.2533 66.6954 58.1087 66.7987 57.995C66.9124 57.8813 67.057 57.8245 67.2327 57.8245C67.4084 57.8245 67.553 57.8813 67.6667 57.995C67.7804 58.1087 67.8372 58.2533 67.8372 58.429V66.0085C67.8372 66.5355 67.9922 66.9695 68.3022 67.3105C68.6122 67.6412 69.01 67.8065 69.4957 67.8065H69.9142C70.0795 67.8065 70.2139 67.8633 70.3172 67.977C70.4205 68.0907 70.4722 68.2353 70.4722 68.411C70.4722 68.5867 70.4102 68.7313 70.2862 68.845C70.1622 68.9483 70.0072 69 69.8212 69H69.4957ZM65.6362 61.87C65.4812 61.87 65.352 61.8235 65.2487 61.7305C65.1454 61.6272 65.0937 61.5032 65.0937 61.3585C65.0937 61.2035 65.1454 61.0795 65.2487 60.9865C65.352 60.8832 65.4812 60.8315 65.6362 60.8315H69.5887C69.7437 60.8315 69.8729 60.8832 69.9762 60.9865C70.0795 61.0795 70.1312 61.2035 70.1312 61.3585C70.1312 61.5032 70.0795 61.6272 69.9762 61.7305C69.8729 61.8235 69.7437 61.87 69.5887 61.87H65.6362ZM77.7155 69C77.5502 69 77.4055 68.9432 77.2815 68.8295C77.1679 68.7055 77.111 68.5608 77.111 68.3955V57.499C77.111 57.3337 77.1679 57.1942 77.2815 57.0805C77.4055 56.9565 77.5502 56.8945 77.7155 56.8945C77.8809 56.8945 78.0204 56.9565 78.134 57.0805C78.258 57.1942 78.32 57.3337 78.32 57.499V62.769L83.9775 57.1115C84.0602 57.0288 84.1377 56.972 84.21 56.941C84.2824 56.91 84.365 56.8945 84.458 56.8945C84.644 56.8945 84.7835 56.9513 84.8765 57.065C84.9695 57.1787 85.0109 57.3182 85.0005 57.4835C85.0005 57.6385 84.9385 57.7883 84.8145 57.933L80.5675 62.18L84.861 68.039C84.954 68.1733 84.9902 68.318 84.9695 68.473C84.9592 68.6177 84.9024 68.7417 84.799 68.845C84.6957 68.9483 84.5717 69 84.427 69C84.1997 69 84.0292 68.9122 83.9155 68.7365L79.6995 63.0325L78.32 64.4275V68.3955C78.32 68.5608 78.258 68.7055 78.134 68.8295C78.0204 68.9432 77.8809 69 77.7155 69ZM90.0334 69.0775C89.1964 69.0775 88.4524 68.8967 87.8014 68.535C87.1608 68.163 86.6544 67.6515 86.2824 67.0005C85.9208 66.3495 85.7399 65.6055 85.7399 64.7685C85.7399 63.9212 85.9104 63.1772 86.2514 62.5365C86.6028 61.8855 87.0833 61.374 87.6929 61.002C88.3026 60.63 89.0053 60.444 89.8009 60.444C90.5863 60.444 91.2683 60.6248 91.8469 60.9865C92.4359 61.3378 92.8906 61.8287 93.2109 62.459C93.5313 63.0893 93.6914 63.8075 93.6914 64.6135C93.6914 64.7788 93.6398 64.9132 93.5364 65.0165C93.4331 65.1095 93.2988 65.156 93.1334 65.156H86.5459V64.164H93.2574L92.5909 64.6445C92.6013 64.0452 92.4928 63.5078 92.2654 63.0325C92.0381 62.5572 91.7126 62.1852 91.2889 61.9165C90.8756 61.6478 90.3796 61.5135 89.8009 61.5135C89.2119 61.5135 88.6953 61.653 88.2509 61.932C87.8066 62.211 87.4604 62.5985 87.2124 63.0945C86.9748 63.5802 86.8559 64.1382 86.8559 64.7685C86.8559 65.3988 86.9903 65.9568 87.2589 66.4425C87.5379 66.9282 87.9151 67.3105 88.3904 67.5895C88.8658 67.8685 89.4134 68.008 90.0334 68.008C90.4054 68.008 90.7774 67.946 91.1494 67.822C91.5318 67.6877 91.8366 67.5223 92.0639 67.326C92.1776 67.233 92.3068 67.1865 92.4514 67.1865C92.5961 67.1762 92.7201 67.2123 92.8234 67.295C92.9578 67.419 93.0249 67.5533 93.0249 67.698C93.0353 67.8427 92.9784 67.9667 92.8544 68.07C92.5134 68.3593 92.0794 68.6022 91.5524 68.7985C91.0254 68.9845 90.5191 69.0775 90.0334 69.0775ZM97.1674 72.689C97.0848 72.689 96.9918 72.6683 96.8884 72.627C96.5371 72.472 96.4389 72.224 96.5939 71.883L101.6 60.847C101.755 60.5163 102.003 60.4233 102.344 60.568C102.696 60.7127 102.794 60.9555 102.639 61.2965L97.6169 72.3325C97.5136 72.5702 97.3638 72.689 97.1674 72.689ZM98.8879 68.7365C98.7329 68.8088 98.5883 68.8243 98.4539 68.783C98.3196 68.7313 98.2111 68.628 98.1284 68.473L94.6719 61.312C94.5996 61.157 94.5893 61.0123 94.6409 60.878C94.6926 60.7437 94.7959 60.6403 94.9509 60.568C95.1059 60.4957 95.2506 60.4853 95.3849 60.537C95.5193 60.5783 95.6226 60.6765 95.6949 60.8315L99.0894 67.9925C99.1721 68.1475 99.1979 68.2922 99.1669 68.4265C99.1359 68.5608 99.0429 68.6642 98.8879 68.7365ZM108.496 69.0775C107.69 69.0775 106.961 68.8915 106.31 68.5195C105.669 68.1475 105.158 67.6412 104.776 67.0005C104.404 66.3495 104.212 65.621 104.202 64.815V57.499C104.202 57.313 104.254 57.1683 104.357 57.065C104.471 56.9513 104.621 56.8945 104.807 56.8945C104.982 56.8945 105.122 56.9513 105.225 57.065C105.339 57.1683 105.396 57.313 105.396 57.499V62.056C105.737 61.5703 106.186 61.1828 106.744 60.8935C107.312 60.5938 107.943 60.444 108.635 60.444C109.431 60.444 110.144 60.6352 110.774 61.0175C111.404 61.3895 111.9 61.901 112.262 62.552C112.634 63.203 112.82 63.9367 112.82 64.753C112.82 65.5797 112.629 66.3185 112.247 66.9695C111.875 67.6205 111.363 68.1372 110.712 68.5195C110.061 68.8915 109.322 69.0775 108.496 69.0775ZM108.496 67.9925C109.095 67.9925 109.632 67.853 110.108 67.574C110.583 67.2847 110.955 66.8972 111.224 66.4115C111.503 65.9258 111.642 65.373 111.642 64.753C111.642 64.1433 111.503 63.5957 111.224 63.11C110.955 62.614 110.583 62.2265 110.108 61.9475C109.632 61.6685 109.095 61.529 108.496 61.529C107.907 61.529 107.374 61.6685 106.899 61.9475C106.424 62.2265 106.052 62.614 105.783 63.11C105.514 63.5957 105.38 64.1433 105.38 64.753C105.38 65.373 105.514 65.9258 105.783 66.4115C106.052 66.8972 106.424 67.2847 106.899 67.574C107.374 67.853 107.907 67.9925 108.496 67.9925ZM116.014 69C115.828 69 115.678 68.9483 115.564 68.845C115.461 68.7313 115.409 68.5815 115.409 68.3955V61.126C115.409 60.94 115.461 60.7953 115.564 60.692C115.678 60.5783 115.828 60.5215 116.014 60.5215C116.189 60.5215 116.329 60.5783 116.432 60.692C116.546 60.7953 116.603 60.94 116.603 61.126V68.3955C116.603 68.5815 116.546 68.7313 116.432 68.845C116.329 68.9483 116.189 69 116.014 69ZM115.998 58.9095C115.771 58.9095 115.574 58.8268 115.409 58.6615C115.244 58.4962 115.161 58.2947 115.161 58.057C115.161 57.7987 115.244 57.5972 115.409 57.4525C115.585 57.2975 115.786 57.22 116.014 57.22C116.231 57.22 116.422 57.2975 116.587 57.4525C116.763 57.5972 116.851 57.7987 116.851 58.057C116.851 58.2947 116.768 58.4962 116.603 58.6615C116.437 58.8268 116.236 58.9095 115.998 58.9095ZM126.911 69C126.735 69 126.591 68.9432 126.477 68.8295C126.363 68.7158 126.307 68.5763 126.307 68.411V64.381C126.307 63.7403 126.183 63.2133 125.935 62.8C125.697 62.3867 125.366 62.0767 124.943 61.87C124.529 61.6633 124.059 61.56 123.532 61.56C123.026 61.56 122.566 61.6582 122.153 61.8545C121.75 62.0508 121.429 62.3195 121.192 62.6605C120.954 63.0015 120.835 63.389 120.835 63.823H119.983C120.003 63.172 120.179 62.5933 120.51 62.087C120.84 61.5703 121.279 61.1673 121.827 60.878C122.375 60.5783 122.984 60.4285 123.656 60.4285C124.39 60.4285 125.046 60.5835 125.625 60.8935C126.203 61.1932 126.658 61.6375 126.989 62.2265C127.33 62.8155 127.5 63.5337 127.5 64.381V68.411C127.5 68.5763 127.443 68.7158 127.33 68.8295C127.216 68.9432 127.076 69 126.911 69ZM120.246 69C120.06 69 119.91 68.9483 119.797 68.845C119.693 68.7313 119.642 68.5867 119.642 68.411V61.126C119.642 60.94 119.693 60.7953 119.797 60.692C119.91 60.5783 120.06 60.5215 120.246 60.5215C120.422 60.5215 120.561 60.5783 120.665 60.692C120.778 60.7953 120.835 60.94 120.835 61.126V68.411C120.835 68.5867 120.778 68.7313 120.665 68.845C120.561 68.9483 120.422 69 120.246 69ZM133.991 69.0775C133.174 69.0775 132.441 68.8915 131.79 68.5195C131.139 68.1372 130.622 67.6205 130.24 66.9695C129.868 66.3185 129.682 65.5797 129.682 64.753C129.682 63.9367 129.863 63.203 130.224 62.552C130.596 61.901 131.097 61.3895 131.728 61.0175C132.358 60.6352 133.071 60.444 133.867 60.444C134.559 60.444 135.184 60.5938 135.742 60.8935C136.3 61.1828 136.75 61.5703 137.091 62.056V57.499C137.091 57.313 137.148 57.1683 137.261 57.065C137.375 56.9513 137.52 56.8945 137.695 56.8945C137.871 56.8945 138.016 56.9513 138.129 57.065C138.243 57.1683 138.3 57.313 138.3 57.499V64.815C138.279 65.621 138.078 66.3495 137.695 67.0005C137.323 67.6412 136.812 68.1475 136.161 68.5195C135.52 68.8915 134.797 69.0775 133.991 69.0775ZM133.991 67.9925C134.59 67.9925 135.122 67.853 135.587 67.574C136.063 67.2847 136.435 66.8972 136.703 66.4115C136.982 65.9258 137.122 65.373 137.122 64.753C137.122 64.1433 136.982 63.5957 136.703 63.11C136.435 62.614 136.063 62.2265 135.587 61.9475C135.122 61.6685 134.59 61.529 133.991 61.529C133.402 61.529 132.87 61.6685 132.394 61.9475C131.919 62.2265 131.542 62.614 131.263 63.11C130.984 63.5957 130.844 64.1433 130.844 64.753C130.844 65.373 130.984 65.9258 131.263 66.4115C131.542 66.8972 131.919 67.2847 132.394 67.574C132.87 67.853 133.402 67.9925 133.991 67.9925Z" fill="#D0D3D1"/>
<rect x="10" y="39" width="318" height="2" rx="1" fill="#1E201E"/>
<g filter="url(#filter0_d_0_1)">
<path d="M13.4502 17.6348C13.626 15.959 13.8369 14.6348 14.083 13.6621C14.1299 13.5449 14.2324 13.4131 14.3906 13.2666C14.5547 13.1143 14.6895 13.0381 14.7949 13.0381H18.1172C16.6582 14.1221 15.3574 15.458 14.2148 17.0459C14.1504 17.1455 14.0361 17.2686 13.8721 17.415C13.7139 17.5615 13.5732 17.6348 13.4502 17.6348ZM22.9512 20.3682C22.7754 21.9971 22.5674 23.3301 22.3271 24.3672C22.2744 24.4844 22.166 24.6191 22.002 24.7715C21.8438 24.9238 21.7119 25 21.6064 25H18.2842C19.708 23.9453 21.0088 22.5918 22.1865 20.9395C22.2686 20.8281 22.3857 20.7051 22.5381 20.5703C22.6963 20.4355 22.834 20.3682 22.9512 20.3682ZM12.501 24.4199C15.1377 20.5527 17.2852 16.7588 18.9434 13.0381H23.2412C23.376 13.0381 23.5342 13.1143 23.7158 13.2666C23.8975 13.4131 23.9971 13.5273 24.0146 13.6094C23.8799 13.832 23.6045 14.2832 23.1885 14.9629C22.7725 15.6426 22.5088 16.0762 22.3975 16.2637C22.2861 16.4453 22.0605 16.8174 21.7207 17.3799C21.3867 17.9365 21.1611 18.3115 21.0439 18.5049C20.9326 18.6982 20.7393 19.0322 20.4639 19.5068C20.1885 19.9814 19.9863 20.3359 19.8574 20.5703L19.3037 21.5635C19.0693 21.9854 18.8701 22.3574 18.7061 22.6797C18.542 22.9961 18.3545 23.3564 18.1436 23.7607C17.9385 24.165 17.7334 24.5781 17.5283 25H13.2744C13.1338 25 12.9697 24.9238 12.7822 24.7715C12.5947 24.6133 12.501 24.4961 12.501 24.4199ZM34.2275 25H30.1406C29.6836 21.3555 29.1064 18.1914 28.4092 15.5078C28.749 14.8164 29.0391 14.1836 29.2793 13.6094C29.3203 13.5215 29.4258 13.4043 29.5957 13.2578C29.7715 13.1113 29.9209 13.0381 30.0439 13.0381H32.8389C33.0791 14.8076 33.4014 16.7793 33.8057 18.9531C34.2158 21.1211 34.6143 22.9434 35.001 24.4199C35.001 24.4961 34.9072 24.6133 34.7197 24.7715C34.5322 24.9238 34.3682 25 34.2275 25ZM27.2051 23.4443L27.2314 24.4199C27.2314 24.4961 27.1348 24.6133 26.9414 24.7715C26.7539 24.9238 26.5928 25 26.458 25H23.6543C24.5801 23.4297 26.0156 20.5527 27.9609 16.3691C28.0137 16.5215 28.04 16.7354 28.04 17.0107C28.04 17.2803 27.999 17.6729 27.917 18.1885C27.8408 18.7041 27.7412 19.3135 27.6182 20.0166C27.4951 20.7139 27.4043 21.2793 27.3457 21.7129C28.1895 21.8418 28.8018 21.9854 29.1826 22.1436C29.1826 22.4951 29.124 22.7559 29.0068 22.9258C28.3975 22.9785 27.7969 23.0576 27.2051 23.1631V23.4443ZM41.6807 24.4199C41.6807 24.4961 41.5869 24.6133 41.3994 24.7715C41.2119 24.9238 41.0479 25 40.9072 25H36.917C37.7197 21.7656 38.291 18.001 38.6309 13.7061C38.6309 13.6357 38.7246 13.5273 38.9121 13.3809C39.0996 13.2285 39.2607 13.1494 39.3955 13.1436C41.1533 12.9971 42.4951 12.9238 43.4209 12.9238C42.5771 16.5684 41.9971 20.4004 41.6807 24.4199ZM48.0615 21.0449L47.9385 22.8115C47.9385 23.1338 47.9971 23.3916 48.1143 23.585C48.2314 23.7783 48.4482 23.8984 48.7646 23.9453C48.7061 24.3145 48.6094 24.6162 48.4746 24.8506C47.4258 25.0967 46.5322 25.2197 45.7939 25.2197C45.0615 25.2197 44.4932 25.1201 44.0889 24.9209C43.6904 24.7158 43.4912 24.3994 43.4912 23.9717C43.4912 23.5439 43.5557 22.9609 43.6846 22.2227C43.8193 21.4785 43.8867 20.9512 43.8867 20.6406C43.8867 20.3242 43.8164 20.0605 43.6758 19.8496C43.5352 19.6387 43.3447 19.5215 43.1045 19.498C43.1338 19.2344 43.2334 19 43.4033 18.7949C43.8955 18.5371 44.2793 18.1357 44.5547 17.5908C44.8301 17.0459 44.9678 16.457 44.9678 15.8242C44.9678 14.875 44.6836 14.1045 44.1152 13.5127C44.1152 13.4248 44.209 13.3018 44.3965 13.1436C44.584 12.9854 44.7451 12.9062 44.8799 12.9062C45.9287 12.9062 46.8369 13.123 47.6045 13.5566C47.9912 13.7793 48.2988 14.084 48.5273 14.4707C48.7559 14.8574 48.8701 15.3027 48.8701 15.8066C48.8701 16.6328 48.4922 17.3359 47.7363 17.916C46.9805 18.4961 45.9697 18.8301 44.7041 18.918L45.4951 18.9883C46.2686 19.0645 46.8896 19.2695 47.3584 19.6035C47.8271 19.9316 48.0615 20.4121 48.0615 21.0449ZM59.7334 25H55.6465C55.1895 21.3555 54.6123 18.1914 53.915 15.5078C54.2549 14.8164 54.5449 14.1836 54.7852 13.6094C54.8262 13.5215 54.9316 13.4043 55.1016 13.2578C55.2773 13.1113 55.4268 13.0381 55.5498 13.0381H58.3447C58.585 14.8076 58.9072 16.7793 59.3115 18.9531C59.7217 21.1211 60.1201 22.9434 60.5068 24.4199C60.5068 24.4961 60.4131 24.6133 60.2256 24.7715C60.0381 24.9238 59.874 25 59.7334 25ZM52.7109 23.4443L52.7373 24.4199C52.7373 24.4961 52.6406 24.6133 52.4473 24.7715C52.2598 24.9238 52.0986 25 51.9639 25H49.1602C50.0859 23.4297 51.5215 20.5527 53.4668 16.3691C53.5195 16.5215 53.5459 16.7354 53.5459 17.0107C53.5459 17.2803 53.5049 17.6729 53.4229 18.1885C53.3467 18.7041 53.2471 19.3135 53.124 20.0166C53.001 20.7139 52.9102 21.2793 52.8516 21.7129C53.6953 21.8418 54.3076 21.9854 54.6885 22.1436C54.6885 22.4951 54.6299 22.7559 54.5127 22.9258C53.9033 22.9785 53.3027 23.0576 52.7109 23.1631V23.4443ZM67.2744 25C66.0967 20.957 64.6787 17.1602 63.0205 13.6094C63.0205 13.5332 63.1143 13.4189 63.3018 13.2666C63.4951 13.1143 63.6592 13.0381 63.7939 13.0381H68.2939C68.9619 15.3232 69.6035 17.2979 70.2188 18.9619C70.834 20.6201 71.6074 22.4395 72.5391 24.4199C72.5391 24.4961 72.4453 24.6133 72.2578 24.7715C72.0703 24.9238 71.9092 25 71.7744 25H67.2744ZM70.6934 18.6631C71.0273 17.5557 71.1943 16.5947 71.1943 15.7803C71.1943 15.3936 71.1592 15.0537 71.0889 14.7607C71.0186 14.4619 70.8955 14.0781 70.7197 13.6094C70.7197 13.5332 70.8135 13.4189 71.001 13.2666C71.1943 13.1143 71.3584 13.0381 71.4932 13.0381H74.2969C73.5996 14.1045 73.0283 15.0186 72.583 15.7803C72.1377 16.542 71.7627 17.3037 71.458 18.0654C71.4229 18.1592 71.3203 18.2822 71.1504 18.4346C70.9805 18.5869 70.8281 18.6631 70.6934 18.6631ZM64.8926 19.3398C64.5586 20.4121 64.3916 21.3174 64.3916 22.0557C64.3916 22.7939 64.5498 23.582 64.8662 24.4199C64.8662 24.4961 64.7695 24.6133 64.5762 24.7715C64.3887 24.9238 64.2275 25 64.0928 25H61.2803C62.6572 22.8848 63.6035 21.1914 64.1191 19.9199C64.1543 19.8262 64.2568 19.7061 64.4268 19.5596C64.6025 19.4131 64.7578 19.3398 64.8926 19.3398ZM78.2607 25H74.1738C74.9824 21.502 75.5537 17.7051 75.8877 13.6094C75.8877 13.5332 75.9814 13.4189 76.1689 13.2666C76.3623 13.1143 76.5264 13.0381 76.6611 13.0381H80.748C79.9336 16.5068 79.3594 20.3008 79.0254 24.4199C79.0254 24.4961 78.9316 24.6133 78.7441 24.7715C78.5566 24.9238 78.3955 25 78.2607 25ZM87.8848 12.7041C87.4219 13.0967 87.1904 13.5742 87.1904 14.1367C87.1904 14.6934 87.3428 15.2529 87.6475 15.8154C87.958 16.3721 88.3184 16.8467 88.7285 17.2393C89.1387 17.6318 89.4551 17.9453 89.6777 18.1797C89.9062 18.4082 90.1611 18.6865 90.4424 19.0146C90.7295 19.3369 90.9551 19.627 91.1191 19.8848C91.5234 20.5117 91.7256 21.0625 91.7256 21.5371C91.7256 22.0059 91.626 22.4424 91.4268 22.8467C91.2334 23.251 90.9551 23.6201 90.5918 23.9541C90.2344 24.2822 89.7744 24.5547 89.2119 24.7715C88.6553 24.9883 88.04 25.1113 87.3662 25.1406C87.5537 24.8711 87.6475 24.5898 87.6475 24.2969C87.6475 23.998 87.5859 23.6963 87.4629 23.3916C87.3398 23.0811 87.1523 22.75 86.9004 22.3984C86.4961 21.8301 86.042 21.2734 85.5381 20.7285C85.04 20.1836 84.6914 19.7939 84.4922 19.5596C84.2988 19.3252 84.0791 19.0293 83.833 18.6719C83.3525 17.9805 83.1123 17.2861 83.1123 16.5889C83.1123 15.8916 83.3262 15.2441 83.7539 14.6465C84.1816 14.0488 84.7588 13.5771 85.4854 13.2314C86.2178 12.8857 87.0176 12.71 87.8848 12.7041ZM90.8115 18.0127C90.8115 17.4443 90.709 16.8584 90.5039 16.2549C90.0996 15.0771 89.4258 14.1279 88.4824 13.4072C88.4941 13.3018 88.5938 13.1758 88.7812 13.0293C88.9688 12.8828 89.124 12.8096 89.2471 12.8096C89.6748 12.8096 90.1729 12.8945 90.7412 13.0645C91.3154 13.2344 91.7695 13.3984 92.1035 13.5566C92.1328 13.7324 92.1475 14.04 92.1475 14.4795C92.1475 14.9131 92.1064 15.458 92.0244 16.1143C91.9424 16.7646 91.8428 17.2803 91.7256 17.6611C91.6904 17.749 91.5645 17.8311 91.3477 17.9072C91.1367 17.9775 90.958 18.0127 90.8115 18.0127ZM86.6016 24.376C86.5312 24.7744 86.4229 25.041 86.2764 25.1758C85.6611 25.1758 84.9346 25.0967 84.0967 24.9385C83.2588 24.7803 82.6494 24.5781 82.2686 24.332C82.2627 24.2031 82.2598 24.0186 82.2598 23.7783C82.2598 22.6357 82.3945 21.5518 82.6641 20.5264C82.6875 20.4326 82.7871 20.3154 82.9629 20.1748C83.1387 20.0283 83.2969 19.9551 83.4375 19.9551C83.5723 20.5996 83.8125 21.2471 84.1582 21.8975C84.5098 22.5479 84.9053 23.0986 85.3447 23.5498C85.79 23.9951 86.209 24.2705 86.6016 24.376Z" fill="white"/>
</g>
<path d="M14 54C12.3453 54 11 55.3453 11 57V69C11 70.6547 12.3453 72 14 72H35C36.6547 72 38 70.6547 38 69V57C38 55.3453 36.6547 54 35 54H14ZM14.75 57H16.25C16.6625 57 17 57.3375 17 57.75V59.25C17 59.6625 16.6625 60 16.25 60H14.75C14.3375 60 14 59.6625 14 59.25V57.75C14 57.3375 14.3375 57 14.75 57ZM14 62.25C14 61.8375 14.3375 61.5 14.75 61.5H16.25C16.6625 61.5 17 61.8375 17 62.25V63.75C17 64.1625 16.6625 64.5 16.25 64.5H14.75C14.3375 64.5 14 64.1625 14 63.75V62.25ZM14.75 66H16.25C16.6625 66 17 66.3375 17 66.75V68.25C17 68.6625 16.6625 69 16.25 69H14.75C14.3375 69 14 68.6625 14 68.25V66.75C14 66.3375 14.3375 66 14.75 66ZM18.5 57.75C18.5 57.3375 18.8375 57 19.25 57H20.75C21.1625 57 21.5 57.3375 21.5 57.75V59.25C21.5 59.6625 21.1625 60 20.75 60H19.25C18.8375 60 18.5 59.6625 18.5 59.25V57.75ZM19.25 61.5H20.75C21.1625 61.5 21.5 61.8375 21.5 62.25V63.75C21.5 64.1625 21.1625 64.5 20.75 64.5H19.25C18.8375 64.5 18.5 64.1625 18.5 63.75V62.25C18.5 61.8375 18.8375 61.5 19.25 61.5ZM18.5 66.75C18.5 66.3375 18.8375 66 19.25 66H29.75C30.1625 66 30.5 66.3375 30.5 66.75V68.25C30.5 68.6625 30.1625 69 29.75 69H19.25C18.8375 69 18.5 68.6625 18.5 68.25V66.75ZM23.75 57H25.25C25.6625 57 26 57.3375 26 57.75V59.25C26 59.6625 25.6625 60 25.25 60H23.75C23.3375 60 23 59.6625 23 59.25V57.75C23 57.3375 23.3375 57 23.75 57ZM23 62.25C23 61.8375 23.3375 61.5 23.75 61.5H25.25C25.6625 61.5 26 61.8375 26 62.25V63.75C26 64.1625 25.6625 64.5 25.25 64.5H23.75C23.3375 64.5 23 64.1625 23 63.75V62.25ZM28.25 57H29.75C30.1625 57 30.5 57.3375 30.5 57.75V59.25C30.5 59.6625 30.1625 60 29.75 60H28.25C27.8375 60 27.5 59.6625 27.5 59.25V57.75C27.5 57.3375 27.8375 57 28.25 57ZM27.5 62.25C27.5 61.8375 27.8375 61.5 28.25 61.5H29.75C30.1625 61.5 30.5 61.8375 30.5 62.25V63.75C30.5 64.1625 30.1625 64.5 29.75 64.5H28.25C27.8375 64.5 27.5 64.1625 27.5 63.75V62.25ZM32.75 57H34.25C34.6625 57 35 57.3375 35 57.75V59.25C35 59.6625 34.6625 60 34.25 60H32.75C32.3375 60 32 59.6625 32 59.25V57.75C32 57.3375 32.3375 57 32.75 57ZM32 62.25C32 61.8375 32.3375 61.5 32.75 61.5H34.25C34.6625 61.5 35 61.8375 35 62.25V63.75C35 64.1625 34.6625 64.5 34.25 64.5H32.75C32.3375 64.5 32 64.1625 32 63.75V62.25ZM32.75 66H34.25C34.6625 66 35 66.3375 35 66.75V68.25C35 68.6625 34.6625 69 34.25 69H32.75C32.3375 69 32 68.6625 32 68.25V66.75C32 66.3375 32.3375 66 32.75 66Z" fill="white"/>
<defs>
<filter id="filter0_d_0_1" x="0.587377" y="0.790502" width="103.474" height="36.3428" filterUnits="userSpaceOnUse" color-interpolation-filters="sRGB">
<feFlood flood-opacity="0" result="BackgroundImageFix"/>
<feColorMatrix in="SourceAlpha" type="matrix" values="0 0 0 0 0 0 0 0 0 0 0 0 0 0 0 0 0 0 127 0" result="hardAlpha"/>
<feOffset/>
<feGaussianBlur stdDeviation="5.9568"/>
<feColorMatrix type="matrix" values="0 0 0 0 1 0 0 0 0 1 0 0 0 0 1 0 0 0 1 0"/>
<feBlend mode="normal" in2="BackgroundImageFix" result="effect1_dropShadow_0_1"/>
<feBlend mode="normal" in="SourceGraphic" in2="effect1_dropShadow_0_1" result="shape"/>
</filter>
</defs>
</svg>
