<svg width="215" height="59" viewBox="0 0 215 59" fill="none" xmlns="http://www.w3.org/2000/svg">
<rect x="4.5" y="4.5" width="210" height="54" rx="4.5" fill="#131513" stroke="#1E201E"/>
<path d="M16.4 47.1C15.9733 47.1 15.5767 47.04 15.21 46.92C14.85 46.7933 14.5367 46.6167 14.27 46.39C14.0033 46.1633 13.8 45.9 13.66 45.6C13.6067 45.4933 13.6033 45.3967 13.65 45.31C13.7033 45.2167 13.79 45.1533 13.91 45.12C14.0033 45.0933 14.0933 45.1033 14.18 45.15C14.2733 45.1967 14.3433 45.2667 14.39 45.36C14.49 45.5533 14.6367 45.7267 14.83 45.88C15.0233 46.0333 15.2533 46.1533 15.52 46.24C15.7867 46.32 16.08 46.36 16.4 46.36C16.7533 46.36 17.0667 46.3033 17.34 46.19C17.6133 46.07 17.8267 45.9 17.98 45.68C18.14 45.4533 18.22 45.18 18.22 44.86C18.22 44.4533 18.07 44.1033 17.77 43.81C17.47 43.5167 17 43.33 16.36 43.25C15.58 43.1567 14.97 42.9167 14.53 42.53C14.09 42.1367 13.87 41.6567 13.87 41.09C13.87 40.6833 13.9767 40.33 14.19 40.03C14.41 39.73 14.71 39.5 15.09 39.34C15.47 39.1733 15.9067 39.09 16.4 39.09C16.7667 39.09 17.1 39.15 17.4 39.27C17.7 39.3833 17.96 39.5367 18.18 39.73C18.4067 39.9167 18.59 40.1233 18.73 40.35C18.7967 40.4567 18.8167 40.56 18.79 40.66C18.77 40.76 18.7133 40.8367 18.62 40.89C18.52 40.9367 18.4167 40.9433 18.31 40.91C18.21 40.8767 18.1333 40.8133 18.08 40.72C17.98 40.5667 17.8533 40.4233 17.7 40.29C17.5533 40.15 17.3733 40.04 17.16 39.96C16.9467 39.88 16.69 39.8367 16.39 39.83C15.8633 39.83 15.44 39.9433 15.12 40.17C14.8 40.39 14.64 40.7133 14.64 41.14C14.64 41.3667 14.7 41.5767 14.82 41.77C14.94 41.9567 15.1367 42.12 15.41 42.26C15.69 42.3933 16.0633 42.4933 16.53 42.56C17.3633 42.68 17.98 42.9367 18.38 43.33C18.7867 43.7167 18.99 44.2233 18.99 44.85C18.99 45.21 18.9233 45.53 18.79 45.81C18.6633 46.09 18.48 46.3267 18.24 46.52C18.0067 46.7067 17.73 46.85 17.41 46.95C17.0967 47.05 16.76 47.1 16.4 47.1ZM23.0011 47.05C22.4611 47.05 21.9811 46.9333 21.5611 46.7C21.1478 46.46 20.8211 46.13 20.5811 45.71C20.3478 45.29 20.2311 44.81 20.2311 44.27C20.2311 43.7233 20.3411 43.2433 20.5611 42.83C20.7878 42.41 21.0978 42.08 21.4911 41.84C21.8844 41.6 22.3378 41.48 22.8511 41.48C23.3578 41.48 23.7978 41.5967 24.1711 41.83C24.5511 42.0567 24.8444 42.3733 25.0511 42.78C25.2578 43.1867 25.3611 43.65 25.3611 44.17C25.3611 44.2767 25.3278 44.3633 25.2611 44.43C25.1944 44.49 25.1078 44.52 25.0011 44.52H20.7511V43.88H25.0811L24.6511 44.19C24.6578 43.8033 24.5878 43.4567 24.4411 43.15C24.2944 42.8433 24.0844 42.6033 23.8111 42.43C23.5444 42.2567 23.2244 42.17 22.8511 42.17C22.4711 42.17 22.1378 42.26 21.8511 42.44C21.5644 42.62 21.3411 42.87 21.1811 43.19C21.0278 43.5033 20.9511 43.8633 20.9511 44.27C20.9511 44.6767 21.0378 45.0367 21.2111 45.35C21.3911 45.6633 21.6344 45.91 21.9411 46.09C22.2478 46.27 22.6011 46.36 23.0011 46.36C23.2411 46.36 23.4811 46.32 23.7211 46.24C23.9678 46.1533 24.1644 46.0467 24.3111 45.92C24.3844 45.86 24.4678 45.83 24.5611 45.83C24.6544 45.8233 24.7344 45.8467 24.8011 45.9C24.8878 45.98 24.9311 46.0667 24.9311 46.16C24.9378 46.2533 24.9011 46.3333 24.8211 46.4C24.6011 46.5867 24.3211 46.7433 23.9811 46.87C23.6411 46.99 23.3144 47.05 23.0011 47.05ZM28.8037 47C28.4503 47 28.1337 46.9167 27.8537 46.75C27.5803 46.5833 27.3637 46.3567 27.2037 46.07C27.0437 45.7767 26.9637 45.4433 26.9637 45.07V40.18C26.9637 40.0667 26.997 39.9733 27.0637 39.9C27.137 39.8267 27.2303 39.79 27.3437 39.79C27.457 39.79 27.5503 39.8267 27.6237 39.9C27.697 39.9733 27.7337 40.0667 27.7337 40.18V45.07C27.7337 45.41 27.8337 45.69 28.0337 45.91C28.2337 46.1233 28.4903 46.23 28.8037 46.23H29.0737C29.1803 46.23 29.267 46.2667 29.3337 46.34C29.4003 46.4133 29.4337 46.5067 29.4337 46.62C29.4337 46.7333 29.3937 46.8267 29.3137 46.9C29.2337 46.9667 29.1337 47 29.0137 47H28.8037ZM26.3137 42.4C26.2137 42.4 26.1303 42.37 26.0637 42.31C25.997 42.2433 25.9637 42.1633 25.9637 42.07C25.9637 41.97 25.997 41.89 26.0637 41.83C26.1303 41.7633 26.2137 41.73 26.3137 41.73H28.8637C28.9637 41.73 29.047 41.7633 29.1137 41.83C29.1803 41.89 29.2137 41.97 29.2137 42.07C29.2137 42.1633 29.1803 42.2433 29.1137 42.31C29.047 42.37 28.9637 42.4 28.8637 42.4H26.3137ZM34.1068 47C34.0001 47 33.9068 46.9633 33.8268 46.89C33.7535 46.81 33.7168 46.7167 33.7168 46.61V39.58C33.7168 39.4733 33.7535 39.3833 33.8268 39.31C33.9068 39.23 34.0001 39.19 34.1068 39.19C34.2135 39.19 34.3035 39.23 34.3768 39.31C34.4568 39.3833 34.4968 39.4733 34.4968 39.58V42.98L38.1468 39.33C38.2001 39.2767 38.2501 39.24 38.2968 39.22C38.3435 39.2 38.3968 39.19 38.4568 39.19C38.5768 39.19 38.6668 39.2267 38.7268 39.3C38.7868 39.3733 38.8135 39.4633 38.8068 39.57C38.8068 39.67 38.7668 39.7667 38.6868 39.86L35.9468 42.6L38.7168 46.38C38.7768 46.4667 38.8001 46.56 38.7868 46.66C38.7801 46.7533 38.7435 46.8333 38.6768 46.9C38.6101 46.9667 38.5301 47 38.4368 47C38.2901 47 38.1801 46.9433 38.1068 46.83L35.3868 43.15L34.4968 44.05V46.61C34.4968 46.7167 34.4568 46.81 34.3768 46.89C34.3035 46.9633 34.2135 47 34.1068 47ZM42.0538 47.05C41.5138 47.05 41.0338 46.9333 40.6138 46.7C40.2005 46.46 39.8738 46.13 39.6338 45.71C39.4005 45.29 39.2838 44.81 39.2838 44.27C39.2838 43.7233 39.3938 43.2433 39.6138 42.83C39.8405 42.41 40.1505 42.08 40.5438 41.84C40.9372 41.6 41.3905 41.48 41.9038 41.48C42.4105 41.48 42.8505 41.5967 43.2238 41.83C43.6038 42.0567 43.8972 42.3733 44.1038 42.78C44.3105 43.1867 44.4138 43.65 44.4138 44.17C44.4138 44.2767 44.3805 44.3633 44.3138 44.43C44.2472 44.49 44.1605 44.52 44.0538 44.52H39.8038V43.88H44.1338L43.7038 44.19C43.7105 43.8033 43.6405 43.4567 43.4938 43.15C43.3472 42.8433 43.1372 42.6033 42.8638 42.43C42.5972 42.2567 42.2772 42.17 41.9038 42.17C41.5238 42.17 41.1905 42.26 40.9038 42.44C40.6172 42.62 40.3938 42.87 40.2338 43.19C40.0805 43.5033 40.0038 43.8633 40.0038 44.27C40.0038 44.6767 40.0905 45.0367 40.2638 45.35C40.4438 45.6633 40.6872 45.91 40.9938 46.09C41.3005 46.27 41.6538 46.36 42.0538 46.36C42.2938 46.36 42.5338 46.32 42.7738 46.24C43.0205 46.1533 43.2172 46.0467 43.3638 45.92C43.4372 45.86 43.5205 45.83 43.6138 45.83C43.7072 45.8233 43.7872 45.8467 43.8538 45.9C43.9405 45.98 43.9838 46.0667 43.9838 46.16C43.9905 46.2533 43.9538 46.3333 43.8738 46.4C43.6538 46.5867 43.3738 46.7433 43.0338 46.87C42.6938 46.99 42.3672 47.05 42.0538 47.05ZM46.6564 49.38C46.6031 49.38 46.5431 49.3667 46.4764 49.34C46.2497 49.24 46.1864 49.08 46.2864 48.86L49.5164 41.74C49.6164 41.5267 49.7764 41.4667 49.9964 41.56C50.2231 41.6533 50.2864 41.81 50.1864 42.03L46.9464 49.15C46.8797 49.3033 46.7831 49.38 46.6564 49.38ZM47.7664 46.83C47.6664 46.8767 47.5731 46.8867 47.4864 46.86C47.3997 46.8267 47.3297 46.76 47.2764 46.66L45.0464 42.04C44.9997 41.94 44.9931 41.8467 45.0264 41.76C45.0597 41.6733 45.1264 41.6067 45.2264 41.56C45.3264 41.5133 45.4197 41.5067 45.5064 41.54C45.5931 41.5667 45.6597 41.63 45.7064 41.73L47.8964 46.35C47.9497 46.45 47.9664 46.5433 47.9464 46.63C47.9264 46.7167 47.8664 46.7833 47.7664 46.83ZM53.9649 47.05C53.4449 47.05 52.9749 46.93 52.5549 46.69C52.1416 46.45 51.8116 46.1233 51.5649 45.71C51.3249 45.29 51.2016 44.82 51.1949 44.3V39.58C51.1949 39.46 51.2283 39.3667 51.2949 39.3C51.3683 39.2267 51.4649 39.19 51.5849 39.19C51.6983 39.19 51.7883 39.2267 51.8549 39.3C51.9283 39.3667 51.9649 39.46 51.9649 39.58V42.52C52.1849 42.2067 52.4749 41.9567 52.8349 41.77C53.2016 41.5767 53.6083 41.48 54.0549 41.48C54.5683 41.48 55.0283 41.6033 55.4349 41.85C55.8416 42.09 56.1616 42.42 56.3949 42.84C56.6349 43.26 56.7549 43.7333 56.7549 44.26C56.7549 44.7933 56.6316 45.27 56.3849 45.69C56.1449 46.11 55.8149 46.4433 55.3949 46.69C54.9749 46.93 54.4983 47.05 53.9649 47.05ZM53.9649 46.35C54.3516 46.35 54.6983 46.26 55.0049 46.08C55.3116 45.8933 55.5516 45.6433 55.7249 45.33C55.9049 45.0167 55.9949 44.66 55.9949 44.26C55.9949 43.8667 55.9049 43.5133 55.7249 43.2C55.5516 42.88 55.3116 42.63 55.0049 42.45C54.6983 42.27 54.3516 42.18 53.9649 42.18C53.5849 42.18 53.2416 42.27 52.9349 42.45C52.6283 42.63 52.3883 42.88 52.2149 43.2C52.0416 43.5133 51.9549 43.8667 51.9549 44.26C51.9549 44.66 52.0416 45.0167 52.2149 45.33C52.3883 45.6433 52.6283 45.8933 52.9349 46.08C53.2416 46.26 53.5849 46.35 53.9649 46.35ZM58.8152 47C58.6952 47 58.5986 46.9667 58.5252 46.9C58.4586 46.8267 58.4252 46.73 58.4252 46.61V41.92C58.4252 41.8 58.4586 41.7067 58.5252 41.64C58.5986 41.5667 58.6952 41.53 58.8152 41.53C58.9286 41.53 59.0186 41.5667 59.0852 41.64C59.1586 41.7067 59.1952 41.8 59.1952 41.92V46.61C59.1952 46.73 59.1586 46.8267 59.0852 46.9C59.0186 46.9667 58.9286 47 58.8152 47ZM58.8052 40.49C58.6586 40.49 58.5319 40.4367 58.4252 40.33C58.3186 40.2233 58.2652 40.0933 58.2652 39.94C58.2652 39.7733 58.3186 39.6433 58.4252 39.55C58.5386 39.45 58.6686 39.4 58.8152 39.4C58.9552 39.4 59.0786 39.45 59.1852 39.55C59.2986 39.6433 59.3552 39.7733 59.3552 39.94C59.3552 40.0933 59.3019 40.2233 59.1952 40.33C59.0886 40.4367 58.9586 40.49 58.8052 40.49ZM65.8459 47C65.7325 47 65.6392 46.9633 65.5659 46.89C65.4925 46.8167 65.4559 46.7267 65.4559 46.62V44.02C65.4559 43.6067 65.3759 43.2667 65.2159 43C65.0625 42.7333 64.8492 42.5333 64.5759 42.4C64.3092 42.2667 64.0059 42.2 63.6659 42.2C63.3392 42.2 63.0425 42.2633 62.7759 42.39C62.5159 42.5167 62.3092 42.69 62.1559 42.91C62.0025 43.13 61.9259 43.38 61.9259 43.66H61.3759C61.3892 43.24 61.5025 42.8667 61.7159 42.54C61.9292 42.2067 62.2125 41.9467 62.5659 41.76C62.9192 41.5667 63.3125 41.47 63.7459 41.47C64.2192 41.47 64.6425 41.57 65.0159 41.77C65.3892 41.9633 65.6825 42.25 65.8959 42.63C66.1159 43.01 66.2259 43.4733 66.2259 44.02V46.62C66.2259 46.7267 66.1892 46.8167 66.1159 46.89C66.0425 46.9633 65.9525 47 65.8459 47ZM61.5459 47C61.4259 47 61.3292 46.9667 61.2559 46.9C61.1892 46.8267 61.1559 46.7333 61.1559 46.62V41.92C61.1559 41.8 61.1892 41.7067 61.2559 41.64C61.3292 41.5667 61.4259 41.53 61.5459 41.53C61.6592 41.53 61.7492 41.5667 61.8159 41.64C61.8892 41.7067 61.9259 41.8 61.9259 41.92V46.62C61.9259 46.7333 61.8892 46.8267 61.8159 46.9C61.7492 46.9667 61.6592 47 61.5459 47ZM70.4134 47.05C69.8868 47.05 69.4134 46.93 68.9934 46.69C68.5734 46.4433 68.2401 46.11 67.9934 45.69C67.7534 45.27 67.6334 44.7933 67.6334 44.26C67.6334 43.7333 67.7501 43.26 67.9834 42.84C68.2234 42.42 68.5468 42.09 68.9534 41.85C69.3601 41.6033 69.8201 41.48 70.3334 41.48C70.7801 41.48 71.1834 41.5767 71.5434 41.77C71.9034 41.9567 72.1934 42.2067 72.4134 42.52V39.58C72.4134 39.46 72.4501 39.3667 72.5234 39.3C72.5968 39.2267 72.6901 39.19 72.8034 39.19C72.9168 39.19 73.0101 39.2267 73.0834 39.3C73.1568 39.3667 73.1934 39.46 73.1934 39.58V44.3C73.1801 44.82 73.0501 45.29 72.8034 45.71C72.5634 46.1233 72.2334 46.45 71.8134 46.69C71.4001 46.93 70.9334 47.05 70.4134 47.05ZM70.4134 46.35C70.8001 46.35 71.1434 46.26 71.4434 46.08C71.7501 45.8933 71.9901 45.6433 72.1634 45.33C72.3434 45.0167 72.4334 44.66 72.4334 44.26C72.4334 43.8667 72.3434 43.5133 72.1634 43.2C71.9901 42.88 71.7501 42.63 71.4434 42.45C71.1434 42.27 70.8001 42.18 70.4134 42.18C70.0334 42.18 69.6901 42.27 69.3834 42.45C69.0768 42.63 68.8334 42.88 68.6534 43.2C68.4734 43.5133 68.3834 43.8667 68.3834 44.26C68.3834 44.66 68.4734 45.0167 68.6534 45.33C68.8334 45.6433 69.0768 45.8933 69.3834 46.08C69.6901 46.26 70.0334 46.35 70.4134 46.35Z" fill="white"/>
<rect x="10" y="28" width="199" height="1.5" rx="0.75" fill="#1E201E"/>
<g filter="url(#filter0_d_0_1)">
<path d="M13.0474 15.6807C13.1743 14.4704 13.3267 13.514 13.5044 12.8115C13.5382 12.7269 13.6123 12.6317 13.7266 12.5259C13.8451 12.4159 13.9424 12.3608 14.0186 12.3608H16.418C15.3643 13.1437 14.4248 14.1086 13.5996 15.2554C13.5531 15.3273 13.4705 15.4162 13.3521 15.522C13.2378 15.6278 13.1362 15.6807 13.0474 15.6807ZM19.9092 17.6548C19.7822 18.8312 19.632 19.7939 19.4585 20.543C19.4204 20.6276 19.3421 20.7249 19.2236 20.835C19.1094 20.945 19.0142 21 18.938 21H16.5386C17.5669 20.2383 18.5063 19.2607 19.3569 18.0674C19.4162 17.987 19.5008 17.8981 19.6108 17.8008C19.7251 17.7035 19.8245 17.6548 19.9092 17.6548ZM12.3618 20.5811C14.2661 17.7881 15.8171 15.048 17.0146 12.3608H20.1187C20.216 12.3608 20.3302 12.4159 20.4614 12.5259C20.5926 12.6317 20.6646 12.7142 20.6772 12.7734C20.5799 12.9342 20.381 13.2601 20.0806 13.751C19.7801 14.2419 19.5897 14.555 19.5093 14.6904C19.4289 14.8216 19.266 15.0903 19.0205 15.4966C18.7793 15.8986 18.6164 16.1694 18.5317 16.3091C18.4513 16.4487 18.3117 16.6899 18.1128 17.0327C17.9139 17.3755 17.7679 17.6315 17.6748 17.8008L17.2749 18.5181C17.1056 18.8228 16.9618 19.0915 16.8433 19.3242C16.7248 19.5527 16.5894 19.813 16.437 20.105C16.2889 20.397 16.1408 20.6953 15.9927 21H12.9204C12.8188 21 12.7004 20.945 12.5649 20.835C12.4295 20.7207 12.3618 20.6361 12.3618 20.5811ZM28.0532 21H25.1016C24.7715 18.3678 24.3547 16.0827 23.8511 14.1445C24.0965 13.6452 24.306 13.1882 24.4795 12.7734C24.5091 12.71 24.5853 12.6253 24.708 12.5195C24.835 12.4137 24.9429 12.3608 25.0317 12.3608H27.0503C27.2238 13.6388 27.4565 15.0628 27.7485 16.6328C28.0448 18.1986 28.3325 19.5146 28.6118 20.5811C28.6118 20.6361 28.5441 20.7207 28.4087 20.835C28.2733 20.945 28.1548 21 28.0532 21ZM22.9814 19.8765L23.0005 20.5811C23.0005 20.6361 22.9307 20.7207 22.791 20.835C22.6556 20.945 22.5392 21 22.4419 21H20.417C21.0856 19.8659 22.1224 17.7881 23.5273 14.7666C23.5654 14.8766 23.5845 15.0311 23.5845 15.23C23.5845 15.4246 23.5549 15.7082 23.4956 16.0806C23.4406 16.453 23.3687 16.8931 23.2798 17.4009C23.1909 17.9045 23.1253 18.3128 23.083 18.626C23.6924 18.7191 24.1346 18.8228 24.4097 18.937C24.4097 19.1909 24.3674 19.3792 24.2827 19.502C23.8426 19.54 23.4089 19.5972 22.9814 19.6733V19.8765ZM33.436 20.5811C33.436 20.6361 33.3683 20.7207 33.2329 20.835C33.0975 20.945 32.979 21 32.8774 21H29.9956C30.5754 18.6641 30.988 15.9451 31.2334 12.8433C31.2334 12.7925 31.3011 12.7142 31.4365 12.6084C31.5719 12.4984 31.6883 12.4412 31.7856 12.437C33.0552 12.3312 34.0243 12.2783 34.6929 12.2783C34.0835 14.9105 33.6646 17.6781 33.436 20.5811ZM38.0444 18.1436L37.9556 19.4194C37.9556 19.6522 37.9979 19.8384 38.0825 19.978C38.1672 20.1177 38.3237 20.2044 38.5522 20.2383C38.5099 20.5049 38.4401 20.7228 38.3428 20.8921C37.5853 21.0698 36.9399 21.1587 36.4067 21.1587C35.8778 21.1587 35.4673 21.0868 35.1753 20.9429C34.8875 20.7948 34.7437 20.5662 34.7437 20.2573C34.7437 19.9484 34.7902 19.5273 34.8833 18.9941C34.9806 18.4567 35.0293 18.0758 35.0293 17.8516C35.0293 17.623 34.9785 17.4326 34.877 17.2803C34.7754 17.1279 34.6379 17.0433 34.4644 17.0264C34.4855 16.8359 34.5575 16.6667 34.6802 16.5186C35.0356 16.3324 35.3128 16.0425 35.5117 15.6489C35.7106 15.2554 35.8101 14.8301 35.8101 14.373C35.8101 13.6875 35.6048 13.131 35.1943 12.7036C35.1943 12.6401 35.262 12.5513 35.3975 12.437C35.5329 12.3228 35.6493 12.2656 35.7466 12.2656C36.5041 12.2656 37.16 12.4222 37.7144 12.7354C37.9937 12.8962 38.2158 13.1162 38.3809 13.3955C38.5459 13.6748 38.6284 13.9964 38.6284 14.3604C38.6284 14.957 38.3555 15.4648 37.8096 15.8838C37.2637 16.3027 36.5337 16.5439 35.6196 16.6074L36.1909 16.6582C36.7495 16.7132 37.1981 16.8613 37.5366 17.1025C37.8752 17.3395 38.0444 17.6865 38.0444 18.1436ZM46.4741 21H43.5225C43.1924 18.3678 42.7756 16.0827 42.272 14.1445C42.5174 13.6452 42.7269 13.1882 42.9004 12.7734C42.93 12.71 43.0062 12.6253 43.1289 12.5195C43.2559 12.4137 43.3638 12.3608 43.4526 12.3608H45.4712C45.6447 13.6388 45.8774 15.0628 46.1694 16.6328C46.4657 18.1986 46.7534 19.5146 47.0327 20.5811C47.0327 20.6361 46.965 20.7207 46.8296 20.835C46.6942 20.945 46.5757 21 46.4741 21ZM41.4023 19.8765L41.4214 20.5811C41.4214 20.6361 41.3516 20.7207 41.2119 20.835C41.0765 20.945 40.9601 21 40.8628 21H38.8379C39.5065 19.8659 40.5433 17.7881 41.9482 14.7666C41.9863 14.8766 42.0054 15.0311 42.0054 15.23C42.0054 15.4246 41.9757 15.7082 41.9165 16.0806C41.8615 16.453 41.7896 16.8931 41.7007 17.4009C41.6118 17.9045 41.5462 18.3128 41.5039 18.626C42.1133 18.7191 42.5555 18.8228 42.8306 18.937C42.8306 19.1909 42.7882 19.3792 42.7036 19.502C42.2635 19.54 41.8298 19.5972 41.4023 19.6733V19.8765ZM51.9204 21C51.0698 18.0801 50.0457 15.3379 48.8481 12.7734C48.8481 12.7184 48.9159 12.6359 49.0513 12.5259C49.1909 12.4159 49.3094 12.3608 49.4067 12.3608H52.6567C53.1392 14.0112 53.6025 15.4373 54.0469 16.6392C54.4912 17.8368 55.0498 19.1507 55.7227 20.5811C55.7227 20.6361 55.6549 20.7207 55.5195 20.835C55.3841 20.945 55.2677 21 55.1704 21H51.9204ZM54.3896 16.4233C54.6309 15.6235 54.7515 14.9295 54.7515 14.3413C54.7515 14.062 54.7261 13.8166 54.6753 13.605C54.6245 13.3892 54.5356 13.112 54.4087 12.7734C54.4087 12.7184 54.4764 12.6359 54.6118 12.5259C54.7515 12.4159 54.87 12.3608 54.9673 12.3608H56.9922C56.4886 13.131 56.076 13.7912 55.7544 14.3413C55.4328 14.8914 55.1619 15.4416 54.9419 15.9917C54.9165 16.0594 54.8424 16.1483 54.7197 16.2583C54.597 16.3683 54.487 16.4233 54.3896 16.4233ZM50.2002 16.9121C49.959 17.6865 49.8384 18.3403 49.8384 18.8735C49.8384 19.4067 49.9526 19.9759 50.1812 20.5811C50.1812 20.6361 50.1113 20.7207 49.9717 20.835C49.8363 20.945 49.7199 21 49.6226 21H47.5913C48.5858 19.4723 49.2692 18.2493 49.6416 17.3311C49.667 17.2633 49.741 17.1766 49.8638 17.0708C49.9907 16.965 50.1029 16.9121 50.2002 16.9121ZM59.855 21H56.9033C57.4873 18.4736 57.8999 15.7314 58.1411 12.7734C58.1411 12.7184 58.2088 12.6359 58.3442 12.5259C58.4839 12.4159 58.6024 12.3608 58.6997 12.3608H61.6514C61.0632 14.866 60.6484 17.6061 60.4072 20.5811C60.4072 20.6361 60.3395 20.7207 60.2041 20.835C60.0687 20.945 59.9523 21 59.855 21ZM66.8057 12.1196C66.4714 12.4032 66.3042 12.748 66.3042 13.1543C66.3042 13.5563 66.4142 13.9604 66.6343 14.3667C66.8586 14.7687 67.1188 15.1115 67.415 15.395C67.7113 15.6785 67.9398 15.9049 68.1006 16.0742C68.2656 16.2393 68.4497 16.4403 68.6528 16.6772C68.8602 16.91 69.0231 17.1195 69.1416 17.3057C69.4336 17.7585 69.5796 18.1562 69.5796 18.499C69.5796 18.8376 69.5076 19.1528 69.3638 19.4448C69.2241 19.7368 69.0231 20.0034 68.7607 20.2446C68.5026 20.4816 68.1704 20.6784 67.7642 20.835C67.3621 20.9915 66.9178 21.0804 66.4312 21.1016C66.5666 20.9069 66.6343 20.7038 66.6343 20.4922C66.6343 20.2764 66.5898 20.0584 66.501 19.8384C66.4121 19.6141 66.2767 19.375 66.0947 19.1211C65.8027 18.7106 65.4748 18.3086 65.1108 17.915C64.7511 17.5215 64.4993 17.2401 64.3555 17.0708C64.2158 16.9015 64.0571 16.6878 63.8794 16.4297C63.5324 15.9303 63.3589 15.4289 63.3589 14.9253C63.3589 14.4217 63.5133 13.9541 63.8223 13.5225C64.1312 13.0908 64.548 12.7502 65.0728 12.5005C65.6017 12.2508 66.1794 12.1239 66.8057 12.1196ZM68.9194 15.9536C68.9194 15.5431 68.8454 15.12 68.6973 14.6841C68.4053 13.8335 67.9186 13.1479 67.2373 12.6274C67.2458 12.5513 67.3177 12.4603 67.4531 12.3545C67.5885 12.2487 67.7007 12.1958 67.7896 12.1958C68.0985 12.1958 68.4582 12.2572 68.8687 12.3799C69.2834 12.5026 69.6113 12.6211 69.8525 12.7354C69.8737 12.8623 69.8843 13.0845 69.8843 13.4019C69.8843 13.715 69.8547 14.1086 69.7954 14.5825C69.7362 15.0522 69.6642 15.4246 69.5796 15.6997C69.5542 15.7632 69.4632 15.8224 69.3066 15.8774C69.1543 15.9282 69.0252 15.9536 68.9194 15.9536ZM65.8789 20.5493C65.8281 20.8371 65.7498 21.0296 65.644 21.127C65.1997 21.127 64.675 21.0698 64.0698 20.9556C63.4647 20.8413 63.0246 20.6953 62.7495 20.5176C62.7453 20.4245 62.7432 20.2912 62.7432 20.1177C62.7432 19.2925 62.8405 18.5096 63.0352 17.769C63.0521 17.7013 63.124 17.6167 63.251 17.5151C63.3779 17.4093 63.4922 17.3564 63.5938 17.3564C63.6911 17.8219 63.8646 18.2896 64.1143 18.7593C64.3682 19.229 64.6538 19.6268 64.9712 19.9526C65.2928 20.2743 65.5954 20.4731 65.8789 20.5493Z" fill="white"/>
</g>
<defs>
<filter id="filter0_d_0_1" x="0.448216" y="0.206029" width="81.3497" height="32.8663" filterUnits="userSpaceOnUse" color-interpolation-filters="sRGB">
<feFlood flood-opacity="0" result="BackgroundImageFix"/>
<feColorMatrix in="SourceAlpha" type="matrix" values="0 0 0 0 0 0 0 0 0 0 0 0 0 0 0 0 0 0 127 0" result="hardAlpha"/>
<feOffset/>
<feGaussianBlur stdDeviation="5.9568"/>
<feColorMatrix type="matrix" values="0 0 0 0 1 0 0 0 0 1 0 0 0 0 1 0 0 0 1 0"/>
<feBlend mode="normal" in2="BackgroundImageFix" result="effect1_dropShadow_0_1"/>
<feBlend mode="normal" in="SourceGraphic" in2="effect1_dropShadow_0_1" result="shape"/>
</filter>
</defs>
</svg>
