<svg width="249" height="28" viewBox="0 0 249 28" fill="none" xmlns="http://www.w3.org/2000/svg">
<rect x="0.5" y="0.5" width="248" height="27" rx="5.5" fill="#171719" stroke="#373537"/>
<path d="M238.188 12.0929C238.188 13.4374 237.752 14.6794 237.016 15.6871L240.725 19.3984C241.092 19.7646 241.092 20.3592 240.725 20.7254C240.359 21.0915 239.764 21.0915 239.398 20.7254L235.689 17.014C234.681 17.7522 233.439 18.1857 232.094 18.1857C228.728 18.1857 226 15.4586 226 12.0929C226 8.72714 228.728 6 232.094 6C235.46 6 238.188 8.72714 238.188 12.0929ZM232.094 16.311C232.648 16.311 233.197 16.2019 233.709 15.9899C234.22 15.7779 234.686 15.4672 235.077 15.0755C235.469 14.6838 235.78 14.2188 235.992 13.7071C236.204 13.1953 236.313 12.6468 236.313 12.0929C236.313 11.5389 236.204 10.9904 235.992 10.4786C235.78 9.96688 235.469 9.50188 235.077 9.11019C234.686 8.7185 234.22 8.40779 233.709 8.19581C233.197 7.98383 232.648 7.87473 232.094 7.87473C231.54 7.87473 230.991 7.98383 230.48 8.19581C229.968 8.40779 229.503 8.7185 229.111 9.11019C228.719 9.50188 228.408 9.96688 228.196 10.4786C227.984 10.9904 227.875 11.5389 227.875 12.0929C227.875 12.6468 227.984 13.1953 228.196 13.7071C228.408 14.2188 228.719 14.6838 229.111 15.0755C229.503 15.4672 229.968 15.7779 230.48 15.9899C230.991 16.2019 231.54 16.311 232.094 16.311Z" fill="white"/>
</svg>
